G04 #@! TF.GenerationSoftware,KiCad,Pcbnew,5.1.5*
G04 #@! TF.CreationDate,2019-12-05T19:55:23+01:00*
G04 #@! TF.ProjectId,tiny328room,74696e79-3332-4387-926f-6f6d2e6b6963,rev?*
G04 #@! TF.SameCoordinates,Original*
G04 #@! TF.FileFunction,Legend,Top*
G04 #@! TF.FilePolarity,Positive*
%FSLAX46Y46*%
G04 Gerber Fmt 4.6, Leading zero omitted, Abs format (unit mm)*
G04 Created by KiCad (PCBNEW 5.1.5) date 2019-12-05 19:55:23*
%MOMM*%
%LPD*%
G04 APERTURE LIST*
%ADD10C,0.150000*%
%ADD11C,0.120000*%
G04 APERTURE END LIST*
D10*
X142500428Y-82835704D02*
X142500428Y-82035704D01*
X142690904Y-82035704D01*
X142805190Y-82073800D01*
X142881380Y-82149990D01*
X142919476Y-82226180D01*
X142957571Y-82378561D01*
X142957571Y-82492847D01*
X142919476Y-82645228D01*
X142881380Y-82721419D01*
X142805190Y-82797609D01*
X142690904Y-82835704D01*
X142500428Y-82835704D01*
X143833761Y-82911895D02*
X143757571Y-82873800D01*
X143681380Y-82797609D01*
X143567095Y-82683323D01*
X143490904Y-82645228D01*
X143414714Y-82645228D01*
X143452809Y-82835704D02*
X143376619Y-82797609D01*
X143300428Y-82721419D01*
X143262333Y-82569038D01*
X143262333Y-82302371D01*
X143300428Y-82149990D01*
X143376619Y-82073800D01*
X143452809Y-82035704D01*
X143605190Y-82035704D01*
X143681380Y-82073800D01*
X143757571Y-82149990D01*
X143795666Y-82302371D01*
X143795666Y-82569038D01*
X143757571Y-82721419D01*
X143681380Y-82797609D01*
X143605190Y-82835704D01*
X143452809Y-82835704D01*
X125825371Y-84778809D02*
X125939657Y-84816904D01*
X126130133Y-84816904D01*
X126206323Y-84778809D01*
X126244419Y-84740714D01*
X126282514Y-84664523D01*
X126282514Y-84588333D01*
X126244419Y-84512142D01*
X126206323Y-84474047D01*
X126130133Y-84435952D01*
X125977752Y-84397857D01*
X125901561Y-84359761D01*
X125863466Y-84321666D01*
X125825371Y-84245476D01*
X125825371Y-84169285D01*
X125863466Y-84093095D01*
X125901561Y-84055000D01*
X125977752Y-84016904D01*
X126168228Y-84016904D01*
X126282514Y-84055000D01*
X126625371Y-84816904D02*
X126625371Y-84016904D01*
X126815847Y-84016904D01*
X126930133Y-84055000D01*
X127006323Y-84131190D01*
X127044419Y-84207380D01*
X127082514Y-84359761D01*
X127082514Y-84474047D01*
X127044419Y-84626428D01*
X127006323Y-84702619D01*
X126930133Y-84778809D01*
X126815847Y-84816904D01*
X126625371Y-84816904D01*
X127387276Y-84588333D02*
X127768228Y-84588333D01*
X127311085Y-84816904D02*
X127577752Y-84016904D01*
X127844419Y-84816904D01*
X135604371Y-77412809D02*
X135718657Y-77450904D01*
X135909133Y-77450904D01*
X135985323Y-77412809D01*
X136023419Y-77374714D01*
X136061514Y-77298523D01*
X136061514Y-77222333D01*
X136023419Y-77146142D01*
X135985323Y-77108047D01*
X135909133Y-77069952D01*
X135756752Y-77031857D01*
X135680561Y-76993761D01*
X135642466Y-76955666D01*
X135604371Y-76879476D01*
X135604371Y-76803285D01*
X135642466Y-76727095D01*
X135680561Y-76689000D01*
X135756752Y-76650904D01*
X135947228Y-76650904D01*
X136061514Y-76689000D01*
X136404371Y-77450904D02*
X136404371Y-76650904D01*
X136594847Y-76650904D01*
X136709133Y-76689000D01*
X136785323Y-76765190D01*
X136823419Y-76841380D01*
X136861514Y-76993761D01*
X136861514Y-77108047D01*
X136823419Y-77260428D01*
X136785323Y-77336619D01*
X136709133Y-77412809D01*
X136594847Y-77450904D01*
X136404371Y-77450904D01*
X137166276Y-77222333D02*
X137547228Y-77222333D01*
X137090085Y-77450904D02*
X137356752Y-76650904D01*
X137623419Y-77450904D01*
X135623419Y-79876609D02*
X135737704Y-79914704D01*
X135928180Y-79914704D01*
X136004371Y-79876609D01*
X136042466Y-79838514D01*
X136080561Y-79762323D01*
X136080561Y-79686133D01*
X136042466Y-79609942D01*
X136004371Y-79571847D01*
X135928180Y-79533752D01*
X135775800Y-79495657D01*
X135699609Y-79457561D01*
X135661514Y-79419466D01*
X135623419Y-79343276D01*
X135623419Y-79267085D01*
X135661514Y-79190895D01*
X135699609Y-79152800D01*
X135775800Y-79114704D01*
X135966276Y-79114704D01*
X136080561Y-79152800D01*
X136880561Y-79838514D02*
X136842466Y-79876609D01*
X136728180Y-79914704D01*
X136651990Y-79914704D01*
X136537704Y-79876609D01*
X136461514Y-79800419D01*
X136423419Y-79724228D01*
X136385323Y-79571847D01*
X136385323Y-79457561D01*
X136423419Y-79305180D01*
X136461514Y-79228990D01*
X136537704Y-79152800D01*
X136651990Y-79114704D01*
X136728180Y-79114704D01*
X136842466Y-79152800D01*
X136880561Y-79190895D01*
X137604371Y-79914704D02*
X137223419Y-79914704D01*
X137223419Y-79114704D01*
X125844419Y-82188009D02*
X125958704Y-82226104D01*
X126149180Y-82226104D01*
X126225371Y-82188009D01*
X126263466Y-82149914D01*
X126301561Y-82073723D01*
X126301561Y-81997533D01*
X126263466Y-81921342D01*
X126225371Y-81883247D01*
X126149180Y-81845152D01*
X125996800Y-81807057D01*
X125920609Y-81768961D01*
X125882514Y-81730866D01*
X125844419Y-81654676D01*
X125844419Y-81578485D01*
X125882514Y-81502295D01*
X125920609Y-81464200D01*
X125996800Y-81426104D01*
X126187276Y-81426104D01*
X126301561Y-81464200D01*
X127101561Y-82149914D02*
X127063466Y-82188009D01*
X126949180Y-82226104D01*
X126872990Y-82226104D01*
X126758704Y-82188009D01*
X126682514Y-82111819D01*
X126644419Y-82035628D01*
X126606323Y-81883247D01*
X126606323Y-81768961D01*
X126644419Y-81616580D01*
X126682514Y-81540390D01*
X126758704Y-81464200D01*
X126872990Y-81426104D01*
X126949180Y-81426104D01*
X127063466Y-81464200D01*
X127101561Y-81502295D01*
X127825371Y-82226104D02*
X127444419Y-82226104D01*
X127444419Y-81426104D01*
X114871600Y-82962704D02*
X114871600Y-82162704D01*
X115176361Y-82162704D01*
X115252552Y-82200800D01*
X115290647Y-82238895D01*
X115328742Y-82315085D01*
X115328742Y-82429371D01*
X115290647Y-82505561D01*
X115252552Y-82543657D01*
X115176361Y-82581752D01*
X114871600Y-82581752D01*
X115671600Y-82962704D02*
X115671600Y-82162704D01*
X116509695Y-82962704D02*
X116243028Y-82581752D01*
X116052552Y-82962704D02*
X116052552Y-82162704D01*
X116357314Y-82162704D01*
X116433504Y-82200800D01*
X116471600Y-82238895D01*
X116509695Y-82315085D01*
X116509695Y-82429371D01*
X116471600Y-82505561D01*
X116433504Y-82543657D01*
X116357314Y-82581752D01*
X116052552Y-82581752D01*
X115062076Y-84893200D02*
X114985885Y-84855104D01*
X114871600Y-84855104D01*
X114757314Y-84893200D01*
X114681123Y-84969390D01*
X114643028Y-85045580D01*
X114604933Y-85197961D01*
X114604933Y-85312247D01*
X114643028Y-85464628D01*
X114681123Y-85540819D01*
X114757314Y-85617009D01*
X114871600Y-85655104D01*
X114947790Y-85655104D01*
X115062076Y-85617009D01*
X115100171Y-85578914D01*
X115100171Y-85312247D01*
X114947790Y-85312247D01*
X115443028Y-85655104D02*
X115443028Y-84855104D01*
X115900171Y-85655104D01*
X115900171Y-84855104D01*
X116281123Y-85655104D02*
X116281123Y-84855104D01*
X116471600Y-84855104D01*
X116585885Y-84893200D01*
X116662076Y-84969390D01*
X116700171Y-85045580D01*
X116738266Y-85197961D01*
X116738266Y-85312247D01*
X116700171Y-85464628D01*
X116662076Y-85540819D01*
X116585885Y-85617009D01*
X116471600Y-85655104D01*
X116281123Y-85655104D01*
X126085676Y-78924200D02*
X126009485Y-78886104D01*
X125895200Y-78886104D01*
X125780914Y-78924200D01*
X125704723Y-79000390D01*
X125666628Y-79076580D01*
X125628533Y-79228961D01*
X125628533Y-79343247D01*
X125666628Y-79495628D01*
X125704723Y-79571819D01*
X125780914Y-79648009D01*
X125895200Y-79686104D01*
X125971390Y-79686104D01*
X126085676Y-79648009D01*
X126123771Y-79609914D01*
X126123771Y-79343247D01*
X125971390Y-79343247D01*
X126466628Y-79686104D02*
X126466628Y-78886104D01*
X126923771Y-79686104D01*
X126923771Y-78886104D01*
X127304723Y-79686104D02*
X127304723Y-78886104D01*
X127495200Y-78886104D01*
X127609485Y-78924200D01*
X127685676Y-79000390D01*
X127723771Y-79076580D01*
X127761866Y-79228961D01*
X127761866Y-79343247D01*
X127723771Y-79495628D01*
X127685676Y-79571819D01*
X127609485Y-79648009D01*
X127495200Y-79686104D01*
X127304723Y-79686104D01*
X136017076Y-81692800D02*
X135940885Y-81654704D01*
X135826600Y-81654704D01*
X135712314Y-81692800D01*
X135636123Y-81768990D01*
X135598028Y-81845180D01*
X135559933Y-81997561D01*
X135559933Y-82111847D01*
X135598028Y-82264228D01*
X135636123Y-82340419D01*
X135712314Y-82416609D01*
X135826600Y-82454704D01*
X135902790Y-82454704D01*
X136017076Y-82416609D01*
X136055171Y-82378514D01*
X136055171Y-82111847D01*
X135902790Y-82111847D01*
X136398028Y-82454704D02*
X136398028Y-81654704D01*
X136855171Y-82454704D01*
X136855171Y-81654704D01*
X137236123Y-82454704D02*
X137236123Y-81654704D01*
X137426600Y-81654704D01*
X137540885Y-81692800D01*
X137617076Y-81768990D01*
X137655171Y-81845180D01*
X137693266Y-81997561D01*
X137693266Y-82111847D01*
X137655171Y-82264228D01*
X137617076Y-82340419D01*
X137540885Y-82416609D01*
X137426600Y-82454704D01*
X137236123Y-82454704D01*
X142214676Y-83597800D02*
X142138485Y-83559704D01*
X142024200Y-83559704D01*
X141909914Y-83597800D01*
X141833723Y-83673990D01*
X141795628Y-83750180D01*
X141757533Y-83902561D01*
X141757533Y-84016847D01*
X141795628Y-84169228D01*
X141833723Y-84245419D01*
X141909914Y-84321609D01*
X142024200Y-84359704D01*
X142100390Y-84359704D01*
X142214676Y-84321609D01*
X142252771Y-84283514D01*
X142252771Y-84016847D01*
X142100390Y-84016847D01*
X142595628Y-84359704D02*
X142595628Y-83559704D01*
X143052771Y-84359704D01*
X143052771Y-83559704D01*
X143433723Y-84359704D02*
X143433723Y-83559704D01*
X143624200Y-83559704D01*
X143738485Y-83597800D01*
X143814676Y-83673990D01*
X143852771Y-83750180D01*
X143890866Y-83902561D01*
X143890866Y-84016847D01*
X143852771Y-84169228D01*
X143814676Y-84245419D01*
X143738485Y-84321609D01*
X143624200Y-84359704D01*
X143433723Y-84359704D01*
X141884523Y-77565304D02*
X142379761Y-77565304D01*
X142113095Y-77870066D01*
X142227380Y-77870066D01*
X142303571Y-77908161D01*
X142341666Y-77946257D01*
X142379761Y-78022447D01*
X142379761Y-78212923D01*
X142341666Y-78289114D01*
X142303571Y-78327209D01*
X142227380Y-78365304D01*
X141998809Y-78365304D01*
X141922619Y-78327209D01*
X141884523Y-78289114D01*
X142608333Y-77565304D02*
X142875000Y-78365304D01*
X143141666Y-77565304D01*
X143332142Y-77565304D02*
X143827380Y-77565304D01*
X143560714Y-77870066D01*
X143675000Y-77870066D01*
X143751190Y-77908161D01*
X143789285Y-77946257D01*
X143827380Y-78022447D01*
X143827380Y-78212923D01*
X143789285Y-78289114D01*
X143751190Y-78327209D01*
X143675000Y-78365304D01*
X143446428Y-78365304D01*
X143370238Y-78327209D01*
X143332142Y-78289114D01*
X139147571Y-80956057D02*
X139680904Y-80956057D01*
X138842809Y-81146533D02*
X139414238Y-81337009D01*
X139414238Y-80841771D01*
X139604714Y-80537009D02*
X139642809Y-80498914D01*
X139680904Y-80537009D01*
X139642809Y-80575104D01*
X139604714Y-80537009D01*
X139680904Y-80537009D01*
X138880904Y-80232247D02*
X138880904Y-79698914D01*
X139680904Y-80041771D01*
X139680904Y-79394152D02*
X138880904Y-79394152D01*
X139376142Y-79317961D02*
X139680904Y-79089390D01*
X139147571Y-79089390D02*
X139452333Y-79394152D01*
X135509123Y-83610504D02*
X136004361Y-83610504D01*
X135737695Y-83915266D01*
X135851980Y-83915266D01*
X135928171Y-83953361D01*
X135966266Y-83991457D01*
X136004361Y-84067647D01*
X136004361Y-84258123D01*
X135966266Y-84334314D01*
X135928171Y-84372409D01*
X135851980Y-84410504D01*
X135623409Y-84410504D01*
X135547219Y-84372409D01*
X135509123Y-84334314D01*
X136232933Y-83610504D02*
X136499600Y-84410504D01*
X136766266Y-83610504D01*
X136956742Y-83610504D02*
X137451980Y-83610504D01*
X137185314Y-83915266D01*
X137299600Y-83915266D01*
X137375790Y-83953361D01*
X137413885Y-83991457D01*
X137451980Y-84067647D01*
X137451980Y-84258123D01*
X137413885Y-84334314D01*
X137375790Y-84372409D01*
X137299600Y-84410504D01*
X137071028Y-84410504D01*
X136994838Y-84372409D01*
X136956742Y-84334314D01*
X125806323Y-77057304D02*
X126301561Y-77057304D01*
X126034895Y-77362066D01*
X126149180Y-77362066D01*
X126225371Y-77400161D01*
X126263466Y-77438257D01*
X126301561Y-77514447D01*
X126301561Y-77704923D01*
X126263466Y-77781114D01*
X126225371Y-77819209D01*
X126149180Y-77857304D01*
X125920609Y-77857304D01*
X125844419Y-77819209D01*
X125806323Y-77781114D01*
X126530133Y-77057304D02*
X126796800Y-77857304D01*
X127063466Y-77057304D01*
X127253942Y-77057304D02*
X127749180Y-77057304D01*
X127482514Y-77362066D01*
X127596800Y-77362066D01*
X127672990Y-77400161D01*
X127711085Y-77438257D01*
X127749180Y-77514447D01*
X127749180Y-77704923D01*
X127711085Y-77781114D01*
X127672990Y-77819209D01*
X127596800Y-77857304D01*
X127368228Y-77857304D01*
X127292038Y-77819209D01*
X127253942Y-77781114D01*
X114782723Y-79698904D02*
X115277961Y-79698904D01*
X115011295Y-80003666D01*
X115125580Y-80003666D01*
X115201771Y-80041761D01*
X115239866Y-80079857D01*
X115277961Y-80156047D01*
X115277961Y-80346523D01*
X115239866Y-80422714D01*
X115201771Y-80460809D01*
X115125580Y-80498904D01*
X114897009Y-80498904D01*
X114820819Y-80460809D01*
X114782723Y-80422714D01*
X115506533Y-79698904D02*
X115773200Y-80498904D01*
X116039866Y-79698904D01*
X116230342Y-79698904D02*
X116725580Y-79698904D01*
X116458914Y-80003666D01*
X116573200Y-80003666D01*
X116649390Y-80041761D01*
X116687485Y-80079857D01*
X116725580Y-80156047D01*
X116725580Y-80346523D01*
X116687485Y-80422714D01*
X116649390Y-80460809D01*
X116573200Y-80498904D01*
X116344628Y-80498904D01*
X116268438Y-80460809D01*
X116230342Y-80422714D01*
D11*
X128235400Y-88375800D02*
X130895400Y-88375800D01*
X128235400Y-78155800D02*
X128235400Y-88375800D01*
X130895400Y-78155800D02*
X130895400Y-88375800D01*
X128235400Y-78155800D02*
X130895400Y-78155800D01*
X128235400Y-76885800D02*
X128235400Y-75555800D01*
X128235400Y-75555800D02*
X129565400Y-75555800D01*
X135035600Y-75657400D02*
X132375600Y-75657400D01*
X135035600Y-83337400D02*
X135035600Y-75657400D01*
X132375600Y-83337400D02*
X132375600Y-75657400D01*
X135035600Y-83337400D02*
X132375600Y-83337400D01*
X135035600Y-84607400D02*
X135035600Y-85937400D01*
X135035600Y-85937400D02*
X133705600Y-85937400D01*
X144237400Y-77638600D02*
X145567400Y-77638600D01*
X144237400Y-78968600D02*
X144237400Y-77638600D01*
X144237400Y-80238600D02*
X146897400Y-80238600D01*
X146897400Y-80238600D02*
X146897400Y-85378600D01*
X144237400Y-80238600D02*
X144237400Y-85378600D01*
X144237400Y-85378600D02*
X146897400Y-85378600D01*
X111217400Y-86521600D02*
X113877400Y-86521600D01*
X111217400Y-81381600D02*
X111217400Y-86521600D01*
X113877400Y-81381600D02*
X113877400Y-86521600D01*
X111217400Y-81381600D02*
X113877400Y-81381600D01*
X111217400Y-80111600D02*
X111217400Y-78781600D01*
X111217400Y-78781600D02*
X112547400Y-78781600D01*
X142623000Y-80005133D02*
X142623000Y-80347667D01*
X141603000Y-80005133D02*
X141603000Y-80347667D01*
D10*
X124852276Y-76077771D02*
X124995133Y-76125390D01*
X125042752Y-76173009D01*
X125090371Y-76268247D01*
X125090371Y-76411104D01*
X125042752Y-76506342D01*
X124995133Y-76553961D01*
X124899895Y-76601580D01*
X124518942Y-76601580D01*
X124518942Y-75601580D01*
X124852276Y-75601580D01*
X124947514Y-75649200D01*
X124995133Y-75696819D01*
X125042752Y-75792057D01*
X125042752Y-75887295D01*
X124995133Y-75982533D01*
X124947514Y-76030152D01*
X124852276Y-76077771D01*
X124518942Y-76077771D01*
X125518942Y-76601580D02*
X125518942Y-75601580D01*
X125518942Y-76077771D02*
X126090371Y-76077771D01*
X126090371Y-76601580D02*
X126090371Y-75601580D01*
X126423704Y-75601580D02*
X126995133Y-75601580D01*
X126709419Y-76601580D02*
X126709419Y-75601580D01*
X127852276Y-76601580D02*
X127280847Y-76601580D01*
X127566561Y-76601580D02*
X127566561Y-75601580D01*
X127471323Y-75744438D01*
X127376085Y-75839676D01*
X127280847Y-75887295D01*
X135467933Y-85774161D02*
X135610790Y-85821780D01*
X135848885Y-85821780D01*
X135944123Y-85774161D01*
X135991742Y-85726542D01*
X136039361Y-85631304D01*
X136039361Y-85536066D01*
X135991742Y-85440828D01*
X135944123Y-85393209D01*
X135848885Y-85345590D01*
X135658409Y-85297971D01*
X135563171Y-85250352D01*
X135515552Y-85202733D01*
X135467933Y-85107495D01*
X135467933Y-85012257D01*
X135515552Y-84917019D01*
X135563171Y-84869400D01*
X135658409Y-84821780D01*
X135896504Y-84821780D01*
X136039361Y-84869400D01*
X136467933Y-85821780D02*
X136467933Y-84821780D01*
X136467933Y-85297971D02*
X137039361Y-85297971D01*
X137039361Y-85821780D02*
X137039361Y-84821780D01*
X137372695Y-84821780D02*
X137944123Y-84821780D01*
X137658409Y-85821780D02*
X137658409Y-84821780D01*
X138801266Y-85821780D02*
X138229838Y-85821780D01*
X138515552Y-85821780D02*
X138515552Y-84821780D01*
X138420314Y-84964638D01*
X138325076Y-85059876D01*
X138229838Y-85107495D01*
X144073714Y-77090980D02*
X144073714Y-76090980D01*
X144311809Y-76090980D01*
X144454666Y-76138600D01*
X144549904Y-76233838D01*
X144597523Y-76329076D01*
X144645142Y-76519552D01*
X144645142Y-76662409D01*
X144597523Y-76852885D01*
X144549904Y-76948123D01*
X144454666Y-77043361D01*
X144311809Y-77090980D01*
X144073714Y-77090980D01*
X145026095Y-77043361D02*
X145168952Y-77090980D01*
X145407047Y-77090980D01*
X145502285Y-77043361D01*
X145549904Y-76995742D01*
X145597523Y-76900504D01*
X145597523Y-76805266D01*
X145549904Y-76710028D01*
X145502285Y-76662409D01*
X145407047Y-76614790D01*
X145216571Y-76567171D01*
X145121333Y-76519552D01*
X145073714Y-76471933D01*
X145026095Y-76376695D01*
X145026095Y-76281457D01*
X145073714Y-76186219D01*
X145121333Y-76138600D01*
X145216571Y-76090980D01*
X145454666Y-76090980D01*
X145597523Y-76138600D01*
X146549904Y-77090980D02*
X145978476Y-77090980D01*
X146264190Y-77090980D02*
X146264190Y-76090980D01*
X146168952Y-76233838D01*
X146073714Y-76329076D01*
X145978476Y-76376695D01*
X111706209Y-78277980D02*
X111706209Y-77277980D01*
X112087161Y-77277980D01*
X112182400Y-77325600D01*
X112230019Y-77373219D01*
X112277638Y-77468457D01*
X112277638Y-77611314D01*
X112230019Y-77706552D01*
X112182400Y-77754171D01*
X112087161Y-77801790D01*
X111706209Y-77801790D01*
X112706209Y-78277980D02*
X112706209Y-77277980D01*
X113753828Y-78277980D02*
X113420495Y-77801790D01*
X113182400Y-78277980D02*
X113182400Y-77277980D01*
X113563352Y-77277980D01*
X113658590Y-77325600D01*
X113706209Y-77373219D01*
X113753828Y-77468457D01*
X113753828Y-77611314D01*
X113706209Y-77706552D01*
X113658590Y-77754171D01*
X113563352Y-77801790D01*
X113182400Y-77801790D01*
X114706209Y-78277980D02*
X114134780Y-78277980D01*
X114420495Y-78277980D02*
X114420495Y-77277980D01*
X114325257Y-77420838D01*
X114230019Y-77516076D01*
X114134780Y-77563695D01*
X124520314Y-74829857D02*
X124606028Y-74858428D01*
X124748885Y-74858428D01*
X124806028Y-74829857D01*
X124834600Y-74801285D01*
X124863171Y-74744142D01*
X124863171Y-74687000D01*
X124834600Y-74629857D01*
X124806028Y-74601285D01*
X124748885Y-74572714D01*
X124634600Y-74544142D01*
X124577457Y-74515571D01*
X124548885Y-74487000D01*
X124520314Y-74429857D01*
X124520314Y-74372714D01*
X124548885Y-74315571D01*
X124577457Y-74287000D01*
X124634600Y-74258428D01*
X124777457Y-74258428D01*
X124863171Y-74287000D01*
X125463171Y-74801285D02*
X125434600Y-74829857D01*
X125348885Y-74858428D01*
X125291742Y-74858428D01*
X125206028Y-74829857D01*
X125148885Y-74772714D01*
X125120314Y-74715571D01*
X125091742Y-74601285D01*
X125091742Y-74515571D01*
X125120314Y-74401285D01*
X125148885Y-74344142D01*
X125206028Y-74287000D01*
X125291742Y-74258428D01*
X125348885Y-74258428D01*
X125434600Y-74287000D01*
X125463171Y-74315571D01*
X126006028Y-74858428D02*
X125720314Y-74858428D01*
X125720314Y-74258428D01*
X121966028Y-74829857D02*
X122051742Y-74858428D01*
X122194600Y-74858428D01*
X122251742Y-74829857D01*
X122280314Y-74801285D01*
X122308885Y-74744142D01*
X122308885Y-74687000D01*
X122280314Y-74629857D01*
X122251742Y-74601285D01*
X122194600Y-74572714D01*
X122080314Y-74544142D01*
X122023171Y-74515571D01*
X121994600Y-74487000D01*
X121966028Y-74429857D01*
X121966028Y-74372714D01*
X121994600Y-74315571D01*
X122023171Y-74287000D01*
X122080314Y-74258428D01*
X122223171Y-74258428D01*
X122308885Y-74287000D01*
X122566028Y-74858428D02*
X122566028Y-74258428D01*
X122708885Y-74258428D01*
X122794600Y-74287000D01*
X122851742Y-74344142D01*
X122880314Y-74401285D01*
X122908885Y-74515571D01*
X122908885Y-74601285D01*
X122880314Y-74715571D01*
X122851742Y-74772714D01*
X122794600Y-74829857D01*
X122708885Y-74858428D01*
X122566028Y-74858428D01*
X123137457Y-74687000D02*
X123423171Y-74687000D01*
X123080314Y-74858428D02*
X123280314Y-74258428D01*
X123480314Y-74858428D01*
X144783171Y-89815857D02*
X144868885Y-89844428D01*
X145011742Y-89844428D01*
X145068885Y-89815857D01*
X145097457Y-89787285D01*
X145126028Y-89730142D01*
X145126028Y-89673000D01*
X145097457Y-89615857D01*
X145068885Y-89587285D01*
X145011742Y-89558714D01*
X144897457Y-89530142D01*
X144840314Y-89501571D01*
X144811742Y-89473000D01*
X144783171Y-89415857D01*
X144783171Y-89358714D01*
X144811742Y-89301571D01*
X144840314Y-89273000D01*
X144897457Y-89244428D01*
X145040314Y-89244428D01*
X145126028Y-89273000D01*
X145726028Y-89787285D02*
X145697457Y-89815857D01*
X145611742Y-89844428D01*
X145554600Y-89844428D01*
X145468885Y-89815857D01*
X145411742Y-89758714D01*
X145383171Y-89701571D01*
X145354600Y-89587285D01*
X145354600Y-89501571D01*
X145383171Y-89387285D01*
X145411742Y-89330142D01*
X145468885Y-89273000D01*
X145554600Y-89244428D01*
X145611742Y-89244428D01*
X145697457Y-89273000D01*
X145726028Y-89301571D01*
X145983171Y-89844428D02*
X145983171Y-89244428D01*
X146326028Y-89844428D02*
X146068885Y-89501571D01*
X146326028Y-89244428D02*
X145983171Y-89587285D01*
X142071742Y-89844428D02*
X142071742Y-89244428D01*
X142271742Y-89673000D01*
X142471742Y-89244428D01*
X142471742Y-89844428D01*
X142757457Y-89844428D02*
X142757457Y-89244428D01*
X143014600Y-89815857D02*
X143100314Y-89844428D01*
X143243171Y-89844428D01*
X143300314Y-89815857D01*
X143328885Y-89787285D01*
X143357457Y-89730142D01*
X143357457Y-89673000D01*
X143328885Y-89615857D01*
X143300314Y-89587285D01*
X143243171Y-89558714D01*
X143128885Y-89530142D01*
X143071742Y-89501571D01*
X143043171Y-89473000D01*
X143014600Y-89415857D01*
X143014600Y-89358714D01*
X143043171Y-89301571D01*
X143071742Y-89273000D01*
X143128885Y-89244428D01*
X143271742Y-89244428D01*
X143357457Y-89273000D01*
X143728885Y-89244428D02*
X143843171Y-89244428D01*
X143900314Y-89273000D01*
X143957457Y-89330142D01*
X143986028Y-89444428D01*
X143986028Y-89644428D01*
X143957457Y-89758714D01*
X143900314Y-89815857D01*
X143843171Y-89844428D01*
X143728885Y-89844428D01*
X143671742Y-89815857D01*
X143614600Y-89758714D01*
X143586028Y-89644428D01*
X143586028Y-89444428D01*
X143614600Y-89330142D01*
X143671742Y-89273000D01*
X143728885Y-89244428D01*
X139531742Y-89844428D02*
X139531742Y-89244428D01*
X139731742Y-89673000D01*
X139931742Y-89244428D01*
X139931742Y-89844428D01*
X140331742Y-89244428D02*
X140446028Y-89244428D01*
X140503171Y-89273000D01*
X140560314Y-89330142D01*
X140588885Y-89444428D01*
X140588885Y-89644428D01*
X140560314Y-89758714D01*
X140503171Y-89815857D01*
X140446028Y-89844428D01*
X140331742Y-89844428D01*
X140274600Y-89815857D01*
X140217457Y-89758714D01*
X140188885Y-89644428D01*
X140188885Y-89444428D01*
X140217457Y-89330142D01*
X140274600Y-89273000D01*
X140331742Y-89244428D01*
X140817457Y-89815857D02*
X140903171Y-89844428D01*
X141046028Y-89844428D01*
X141103171Y-89815857D01*
X141131742Y-89787285D01*
X141160314Y-89730142D01*
X141160314Y-89673000D01*
X141131742Y-89615857D01*
X141103171Y-89587285D01*
X141046028Y-89558714D01*
X140931742Y-89530142D01*
X140874600Y-89501571D01*
X140846028Y-89473000D01*
X140817457Y-89415857D01*
X140817457Y-89358714D01*
X140846028Y-89301571D01*
X140874600Y-89273000D01*
X140931742Y-89244428D01*
X141074600Y-89244428D01*
X141160314Y-89273000D01*
X141417457Y-89844428D02*
X141417457Y-89244428D01*
X137477457Y-89815857D02*
X137563171Y-89844428D01*
X137706028Y-89844428D01*
X137763171Y-89815857D01*
X137791742Y-89787285D01*
X137820314Y-89730142D01*
X137820314Y-89673000D01*
X137791742Y-89615857D01*
X137763171Y-89587285D01*
X137706028Y-89558714D01*
X137591742Y-89530142D01*
X137534600Y-89501571D01*
X137506028Y-89473000D01*
X137477457Y-89415857D01*
X137477457Y-89358714D01*
X137506028Y-89301571D01*
X137534600Y-89273000D01*
X137591742Y-89244428D01*
X137734600Y-89244428D01*
X137820314Y-89273000D01*
X138048885Y-89815857D02*
X138134600Y-89844428D01*
X138277457Y-89844428D01*
X138334600Y-89815857D01*
X138363171Y-89787285D01*
X138391742Y-89730142D01*
X138391742Y-89673000D01*
X138363171Y-89615857D01*
X138334600Y-89587285D01*
X138277457Y-89558714D01*
X138163171Y-89530142D01*
X138106028Y-89501571D01*
X138077457Y-89473000D01*
X138048885Y-89415857D01*
X138048885Y-89358714D01*
X138077457Y-89301571D01*
X138106028Y-89273000D01*
X138163171Y-89244428D01*
X138306028Y-89244428D01*
X138391742Y-89273000D01*
X145226028Y-73842428D02*
X145026028Y-73556714D01*
X144883171Y-73842428D02*
X144883171Y-73242428D01*
X145111742Y-73242428D01*
X145168885Y-73271000D01*
X145197457Y-73299571D01*
X145226028Y-73356714D01*
X145226028Y-73442428D01*
X145197457Y-73499571D01*
X145168885Y-73528142D01*
X145111742Y-73556714D01*
X144883171Y-73556714D01*
X145454600Y-73813857D02*
X145540314Y-73842428D01*
X145683171Y-73842428D01*
X145740314Y-73813857D01*
X145768885Y-73785285D01*
X145797457Y-73728142D01*
X145797457Y-73671000D01*
X145768885Y-73613857D01*
X145740314Y-73585285D01*
X145683171Y-73556714D01*
X145568885Y-73528142D01*
X145511742Y-73499571D01*
X145483171Y-73471000D01*
X145454600Y-73413857D01*
X145454600Y-73356714D01*
X145483171Y-73299571D01*
X145511742Y-73271000D01*
X145568885Y-73242428D01*
X145711742Y-73242428D01*
X145797457Y-73271000D01*
X145968885Y-73242428D02*
X146311742Y-73242428D01*
X146140314Y-73842428D02*
X146140314Y-73242428D01*
X142271742Y-73242428D02*
X142643171Y-73242428D01*
X142443171Y-73471000D01*
X142528885Y-73471000D01*
X142586028Y-73499571D01*
X142614600Y-73528142D01*
X142643171Y-73585285D01*
X142643171Y-73728142D01*
X142614600Y-73785285D01*
X142586028Y-73813857D01*
X142528885Y-73842428D01*
X142357457Y-73842428D01*
X142300314Y-73813857D01*
X142271742Y-73785285D01*
X142814600Y-73242428D02*
X143014600Y-73842428D01*
X143214600Y-73242428D01*
X143357457Y-73242428D02*
X143728885Y-73242428D01*
X143528885Y-73471000D01*
X143614600Y-73471000D01*
X143671742Y-73499571D01*
X143700314Y-73528142D01*
X143728885Y-73585285D01*
X143728885Y-73728142D01*
X143700314Y-73785285D01*
X143671742Y-73813857D01*
X143614600Y-73842428D01*
X143443171Y-73842428D01*
X143386028Y-73813857D01*
X143357457Y-73785285D01*
X140360314Y-73242428D02*
X140074600Y-73242428D01*
X140046028Y-73528142D01*
X140074600Y-73499571D01*
X140131742Y-73471000D01*
X140274600Y-73471000D01*
X140331742Y-73499571D01*
X140360314Y-73528142D01*
X140388885Y-73585285D01*
X140388885Y-73728142D01*
X140360314Y-73785285D01*
X140331742Y-73813857D01*
X140274600Y-73842428D01*
X140131742Y-73842428D01*
X140074600Y-73813857D01*
X140046028Y-73785285D01*
X140560314Y-73242428D02*
X140760314Y-73842428D01*
X140960314Y-73242428D01*
X137477457Y-73271000D02*
X137420314Y-73242428D01*
X137334600Y-73242428D01*
X137248885Y-73271000D01*
X137191742Y-73328142D01*
X137163171Y-73385285D01*
X137134600Y-73499571D01*
X137134600Y-73585285D01*
X137163171Y-73699571D01*
X137191742Y-73756714D01*
X137248885Y-73813857D01*
X137334600Y-73842428D01*
X137391742Y-73842428D01*
X137477457Y-73813857D01*
X137506028Y-73785285D01*
X137506028Y-73585285D01*
X137391742Y-73585285D01*
X137763171Y-73842428D02*
X137763171Y-73242428D01*
X138106028Y-73842428D01*
X138106028Y-73242428D01*
X138391742Y-73842428D02*
X138391742Y-73242428D01*
X138534600Y-73242428D01*
X138620314Y-73271000D01*
X138677457Y-73328142D01*
X138706028Y-73385285D01*
X138734600Y-73499571D01*
X138734600Y-73585285D01*
X138706028Y-73699571D01*
X138677457Y-73756714D01*
X138620314Y-73813857D01*
X138534600Y-73842428D01*
X138391742Y-73842428D01*
X134937457Y-73271000D02*
X134880314Y-73242428D01*
X134794600Y-73242428D01*
X134708885Y-73271000D01*
X134651742Y-73328142D01*
X134623171Y-73385285D01*
X134594600Y-73499571D01*
X134594600Y-73585285D01*
X134623171Y-73699571D01*
X134651742Y-73756714D01*
X134708885Y-73813857D01*
X134794600Y-73842428D01*
X134851742Y-73842428D01*
X134937457Y-73813857D01*
X134966028Y-73785285D01*
X134966028Y-73585285D01*
X134851742Y-73585285D01*
X135223171Y-73842428D02*
X135223171Y-73242428D01*
X135566028Y-73842428D01*
X135566028Y-73242428D01*
X135851742Y-73842428D02*
X135851742Y-73242428D01*
X135994600Y-73242428D01*
X136080314Y-73271000D01*
X136137457Y-73328142D01*
X136166028Y-73385285D01*
X136194600Y-73499571D01*
X136194600Y-73585285D01*
X136166028Y-73699571D01*
X136137457Y-73756714D01*
X136080314Y-73813857D01*
X135994600Y-73842428D01*
X135851742Y-73842428D01*
X131883171Y-73671000D02*
X132168885Y-73671000D01*
X131826028Y-73842428D02*
X132026028Y-73242428D01*
X132226028Y-73842428D01*
X132768885Y-73842428D02*
X132568885Y-73556714D01*
X132426028Y-73842428D02*
X132426028Y-73242428D01*
X132654600Y-73242428D01*
X132711742Y-73271000D01*
X132740314Y-73299571D01*
X132768885Y-73356714D01*
X132768885Y-73442428D01*
X132740314Y-73499571D01*
X132711742Y-73528142D01*
X132654600Y-73556714D01*
X132426028Y-73556714D01*
X133026028Y-73528142D02*
X133226028Y-73528142D01*
X133311742Y-73842428D02*
X133026028Y-73842428D01*
X133026028Y-73242428D01*
X133311742Y-73242428D01*
X133768885Y-73528142D02*
X133568885Y-73528142D01*
X133568885Y-73842428D02*
X133568885Y-73242428D01*
X133854600Y-73242428D01*
X129886028Y-73671000D02*
X130171742Y-73671000D01*
X129828885Y-73842428D02*
X130028885Y-73242428D01*
X130228885Y-73842428D01*
X130371742Y-73242428D02*
X130771742Y-73242428D01*
X130514600Y-73842428D01*
X127346028Y-73671000D02*
X127631742Y-73671000D01*
X127288885Y-73842428D02*
X127488885Y-73242428D01*
X127688885Y-73842428D01*
X128146028Y-73242428D02*
X128031742Y-73242428D01*
X127974600Y-73271000D01*
X127946028Y-73299571D01*
X127888885Y-73385285D01*
X127860314Y-73499571D01*
X127860314Y-73728142D01*
X127888885Y-73785285D01*
X127917457Y-73813857D01*
X127974600Y-73842428D01*
X128088885Y-73842428D01*
X128146028Y-73813857D01*
X128174600Y-73785285D01*
X128203171Y-73728142D01*
X128203171Y-73585285D01*
X128174600Y-73528142D01*
X128146028Y-73499571D01*
X128088885Y-73471000D01*
X127974600Y-73471000D01*
X127917457Y-73499571D01*
X127888885Y-73528142D01*
X127860314Y-73585285D01*
X124806028Y-73671000D02*
X125091742Y-73671000D01*
X124748885Y-73842428D02*
X124948885Y-73242428D01*
X125148885Y-73842428D01*
X125634600Y-73242428D02*
X125348885Y-73242428D01*
X125320314Y-73528142D01*
X125348885Y-73499571D01*
X125406028Y-73471000D01*
X125548885Y-73471000D01*
X125606028Y-73499571D01*
X125634600Y-73528142D01*
X125663171Y-73585285D01*
X125663171Y-73728142D01*
X125634600Y-73785285D01*
X125606028Y-73813857D01*
X125548885Y-73842428D01*
X125406028Y-73842428D01*
X125348885Y-73813857D01*
X125320314Y-73785285D01*
X122266028Y-73671000D02*
X122551742Y-73671000D01*
X122208885Y-73842428D02*
X122408885Y-73242428D01*
X122608885Y-73842428D01*
X123066028Y-73442428D02*
X123066028Y-73842428D01*
X122923171Y-73213857D02*
X122780314Y-73642428D01*
X123151742Y-73642428D01*
X119726028Y-73671000D02*
X120011742Y-73671000D01*
X119668885Y-73842428D02*
X119868885Y-73242428D01*
X120068885Y-73842428D01*
X120211742Y-73242428D02*
X120583171Y-73242428D01*
X120383171Y-73471000D01*
X120468885Y-73471000D01*
X120526028Y-73499571D01*
X120554600Y-73528142D01*
X120583171Y-73585285D01*
X120583171Y-73728142D01*
X120554600Y-73785285D01*
X120526028Y-73813857D01*
X120468885Y-73842428D01*
X120297457Y-73842428D01*
X120240314Y-73813857D01*
X120211742Y-73785285D01*
X117186028Y-73671000D02*
X117471742Y-73671000D01*
X117128885Y-73842428D02*
X117328885Y-73242428D01*
X117528885Y-73842428D01*
X117700314Y-73299571D02*
X117728885Y-73271000D01*
X117786028Y-73242428D01*
X117928885Y-73242428D01*
X117986028Y-73271000D01*
X118014600Y-73299571D01*
X118043171Y-73356714D01*
X118043171Y-73413857D01*
X118014600Y-73499571D01*
X117671742Y-73842428D01*
X118043171Y-73842428D01*
X114646028Y-73671000D02*
X114931742Y-73671000D01*
X114588885Y-73842428D02*
X114788885Y-73242428D01*
X114988885Y-73842428D01*
X115503171Y-73842428D02*
X115160314Y-73842428D01*
X115331742Y-73842428D02*
X115331742Y-73242428D01*
X115274600Y-73328142D01*
X115217457Y-73385285D01*
X115160314Y-73413857D01*
X112106028Y-73671000D02*
X112391742Y-73671000D01*
X112048885Y-73842428D02*
X112248885Y-73242428D01*
X112448885Y-73842428D01*
X112763171Y-73242428D02*
X112820314Y-73242428D01*
X112877457Y-73271000D01*
X112906028Y-73299571D01*
X112934600Y-73356714D01*
X112963171Y-73471000D01*
X112963171Y-73613857D01*
X112934600Y-73728142D01*
X112906028Y-73785285D01*
X112877457Y-73813857D01*
X112820314Y-73842428D01*
X112763171Y-73842428D01*
X112706028Y-73813857D01*
X112677457Y-73785285D01*
X112648885Y-73728142D01*
X112620314Y-73613857D01*
X112620314Y-73471000D01*
X112648885Y-73356714D01*
X112677457Y-73299571D01*
X112706028Y-73271000D01*
X112763171Y-73242428D01*
X144826028Y-90860428D02*
X144826028Y-90260428D01*
X144968885Y-90260428D01*
X145054600Y-90289000D01*
X145111742Y-90346142D01*
X145140314Y-90403285D01*
X145168885Y-90517571D01*
X145168885Y-90603285D01*
X145140314Y-90717571D01*
X145111742Y-90774714D01*
X145054600Y-90831857D01*
X144968885Y-90860428D01*
X144826028Y-90860428D01*
X145740314Y-90860428D02*
X145397457Y-90860428D01*
X145568885Y-90860428D02*
X145568885Y-90260428D01*
X145511742Y-90346142D01*
X145454600Y-90403285D01*
X145397457Y-90431857D01*
X145940314Y-90260428D02*
X146311742Y-90260428D01*
X146111742Y-90489000D01*
X146197457Y-90489000D01*
X146254600Y-90517571D01*
X146283171Y-90546142D01*
X146311742Y-90603285D01*
X146311742Y-90746142D01*
X146283171Y-90803285D01*
X146254600Y-90831857D01*
X146197457Y-90860428D01*
X146026028Y-90860428D01*
X145968885Y-90831857D01*
X145940314Y-90803285D01*
X142286028Y-90860428D02*
X142286028Y-90260428D01*
X142428885Y-90260428D01*
X142514600Y-90289000D01*
X142571742Y-90346142D01*
X142600314Y-90403285D01*
X142628885Y-90517571D01*
X142628885Y-90603285D01*
X142600314Y-90717571D01*
X142571742Y-90774714D01*
X142514600Y-90831857D01*
X142428885Y-90860428D01*
X142286028Y-90860428D01*
X143200314Y-90860428D02*
X142857457Y-90860428D01*
X143028885Y-90860428D02*
X143028885Y-90260428D01*
X142971742Y-90346142D01*
X142914600Y-90403285D01*
X142857457Y-90431857D01*
X143428885Y-90317571D02*
X143457457Y-90289000D01*
X143514600Y-90260428D01*
X143657457Y-90260428D01*
X143714600Y-90289000D01*
X143743171Y-90317571D01*
X143771742Y-90374714D01*
X143771742Y-90431857D01*
X143743171Y-90517571D01*
X143400314Y-90860428D01*
X143771742Y-90860428D01*
X139517457Y-90860428D02*
X139517457Y-90260428D01*
X139660314Y-90260428D01*
X139746028Y-90289000D01*
X139803171Y-90346142D01*
X139831742Y-90403285D01*
X139860314Y-90517571D01*
X139860314Y-90603285D01*
X139831742Y-90717571D01*
X139803171Y-90774714D01*
X139746028Y-90831857D01*
X139660314Y-90860428D01*
X139517457Y-90860428D01*
X140431742Y-90860428D02*
X140088885Y-90860428D01*
X140260314Y-90860428D02*
X140260314Y-90260428D01*
X140203171Y-90346142D01*
X140146028Y-90403285D01*
X140088885Y-90431857D01*
X141003171Y-90860428D02*
X140660314Y-90860428D01*
X140831742Y-90860428D02*
X140831742Y-90260428D01*
X140774600Y-90346142D01*
X140717457Y-90403285D01*
X140660314Y-90431857D01*
X141346028Y-90260428D02*
X141346028Y-90403285D01*
X141203171Y-90346142D02*
X141346028Y-90403285D01*
X141488885Y-90346142D01*
X141260314Y-90517571D02*
X141346028Y-90403285D01*
X141431742Y-90517571D01*
X136977457Y-90860428D02*
X136977457Y-90260428D01*
X137120314Y-90260428D01*
X137206028Y-90289000D01*
X137263171Y-90346142D01*
X137291742Y-90403285D01*
X137320314Y-90517571D01*
X137320314Y-90603285D01*
X137291742Y-90717571D01*
X137263171Y-90774714D01*
X137206028Y-90831857D01*
X137120314Y-90860428D01*
X136977457Y-90860428D01*
X137891742Y-90860428D02*
X137548885Y-90860428D01*
X137720314Y-90860428D02*
X137720314Y-90260428D01*
X137663171Y-90346142D01*
X137606028Y-90403285D01*
X137548885Y-90431857D01*
X138263171Y-90260428D02*
X138320314Y-90260428D01*
X138377457Y-90289000D01*
X138406028Y-90317571D01*
X138434600Y-90374714D01*
X138463171Y-90489000D01*
X138463171Y-90631857D01*
X138434600Y-90746142D01*
X138406028Y-90803285D01*
X138377457Y-90831857D01*
X138320314Y-90860428D01*
X138263171Y-90860428D01*
X138206028Y-90831857D01*
X138177457Y-90803285D01*
X138148885Y-90746142D01*
X138120314Y-90631857D01*
X138120314Y-90489000D01*
X138148885Y-90374714D01*
X138177457Y-90317571D01*
X138206028Y-90289000D01*
X138263171Y-90260428D01*
X138806028Y-90260428D02*
X138806028Y-90403285D01*
X138663171Y-90346142D02*
X138806028Y-90403285D01*
X138948885Y-90346142D01*
X138720314Y-90517571D02*
X138806028Y-90403285D01*
X138891742Y-90517571D01*
X134951742Y-90860428D02*
X134951742Y-90260428D01*
X135094600Y-90260428D01*
X135180314Y-90289000D01*
X135237457Y-90346142D01*
X135266028Y-90403285D01*
X135294600Y-90517571D01*
X135294600Y-90603285D01*
X135266028Y-90717571D01*
X135237457Y-90774714D01*
X135180314Y-90831857D01*
X135094600Y-90860428D01*
X134951742Y-90860428D01*
X135580314Y-90860428D02*
X135694600Y-90860428D01*
X135751742Y-90831857D01*
X135780314Y-90803285D01*
X135837457Y-90717571D01*
X135866028Y-90603285D01*
X135866028Y-90374714D01*
X135837457Y-90317571D01*
X135808885Y-90289000D01*
X135751742Y-90260428D01*
X135637457Y-90260428D01*
X135580314Y-90289000D01*
X135551742Y-90317571D01*
X135523171Y-90374714D01*
X135523171Y-90517571D01*
X135551742Y-90574714D01*
X135580314Y-90603285D01*
X135637457Y-90631857D01*
X135751742Y-90631857D01*
X135808885Y-90603285D01*
X135837457Y-90574714D01*
X135866028Y-90517571D01*
X132411742Y-90860428D02*
X132411742Y-90260428D01*
X132554600Y-90260428D01*
X132640314Y-90289000D01*
X132697457Y-90346142D01*
X132726028Y-90403285D01*
X132754600Y-90517571D01*
X132754600Y-90603285D01*
X132726028Y-90717571D01*
X132697457Y-90774714D01*
X132640314Y-90831857D01*
X132554600Y-90860428D01*
X132411742Y-90860428D01*
X133097457Y-90517571D02*
X133040314Y-90489000D01*
X133011742Y-90460428D01*
X132983171Y-90403285D01*
X132983171Y-90374714D01*
X133011742Y-90317571D01*
X133040314Y-90289000D01*
X133097457Y-90260428D01*
X133211742Y-90260428D01*
X133268885Y-90289000D01*
X133297457Y-90317571D01*
X133326028Y-90374714D01*
X133326028Y-90403285D01*
X133297457Y-90460428D01*
X133268885Y-90489000D01*
X133211742Y-90517571D01*
X133097457Y-90517571D01*
X133040314Y-90546142D01*
X133011742Y-90574714D01*
X132983171Y-90631857D01*
X132983171Y-90746142D01*
X133011742Y-90803285D01*
X133040314Y-90831857D01*
X133097457Y-90860428D01*
X133211742Y-90860428D01*
X133268885Y-90831857D01*
X133297457Y-90803285D01*
X133326028Y-90746142D01*
X133326028Y-90631857D01*
X133297457Y-90574714D01*
X133268885Y-90546142D01*
X133211742Y-90517571D01*
X129871742Y-90860428D02*
X129871742Y-90260428D01*
X130014600Y-90260428D01*
X130100314Y-90289000D01*
X130157457Y-90346142D01*
X130186028Y-90403285D01*
X130214600Y-90517571D01*
X130214600Y-90603285D01*
X130186028Y-90717571D01*
X130157457Y-90774714D01*
X130100314Y-90831857D01*
X130014600Y-90860428D01*
X129871742Y-90860428D01*
X130414600Y-90260428D02*
X130814600Y-90260428D01*
X130557457Y-90860428D01*
X127103171Y-90860428D02*
X127103171Y-90260428D01*
X127246028Y-90260428D01*
X127331742Y-90289000D01*
X127388885Y-90346142D01*
X127417457Y-90403285D01*
X127446028Y-90517571D01*
X127446028Y-90603285D01*
X127417457Y-90717571D01*
X127388885Y-90774714D01*
X127331742Y-90831857D01*
X127246028Y-90860428D01*
X127103171Y-90860428D01*
X127960314Y-90260428D02*
X127846028Y-90260428D01*
X127788885Y-90289000D01*
X127760314Y-90317571D01*
X127703171Y-90403285D01*
X127674600Y-90517571D01*
X127674600Y-90746142D01*
X127703171Y-90803285D01*
X127731742Y-90831857D01*
X127788885Y-90860428D01*
X127903171Y-90860428D01*
X127960314Y-90831857D01*
X127988885Y-90803285D01*
X128017457Y-90746142D01*
X128017457Y-90603285D01*
X127988885Y-90546142D01*
X127960314Y-90517571D01*
X127903171Y-90489000D01*
X127788885Y-90489000D01*
X127731742Y-90517571D01*
X127703171Y-90546142D01*
X127674600Y-90603285D01*
X128360314Y-90260428D02*
X128360314Y-90403285D01*
X128217457Y-90346142D02*
X128360314Y-90403285D01*
X128503171Y-90346142D01*
X128274600Y-90517571D02*
X128360314Y-90403285D01*
X128446028Y-90517571D01*
X124563171Y-90860428D02*
X124563171Y-90260428D01*
X124706028Y-90260428D01*
X124791742Y-90289000D01*
X124848885Y-90346142D01*
X124877457Y-90403285D01*
X124906028Y-90517571D01*
X124906028Y-90603285D01*
X124877457Y-90717571D01*
X124848885Y-90774714D01*
X124791742Y-90831857D01*
X124706028Y-90860428D01*
X124563171Y-90860428D01*
X125448885Y-90260428D02*
X125163171Y-90260428D01*
X125134600Y-90546142D01*
X125163171Y-90517571D01*
X125220314Y-90489000D01*
X125363171Y-90489000D01*
X125420314Y-90517571D01*
X125448885Y-90546142D01*
X125477457Y-90603285D01*
X125477457Y-90746142D01*
X125448885Y-90803285D01*
X125420314Y-90831857D01*
X125363171Y-90860428D01*
X125220314Y-90860428D01*
X125163171Y-90831857D01*
X125134600Y-90803285D01*
X125820314Y-90260428D02*
X125820314Y-90403285D01*
X125677457Y-90346142D02*
X125820314Y-90403285D01*
X125963171Y-90346142D01*
X125734600Y-90517571D02*
X125820314Y-90403285D01*
X125906028Y-90517571D01*
X122251742Y-90860428D02*
X122251742Y-90260428D01*
X122394600Y-90260428D01*
X122480314Y-90289000D01*
X122537457Y-90346142D01*
X122566028Y-90403285D01*
X122594600Y-90517571D01*
X122594600Y-90603285D01*
X122566028Y-90717571D01*
X122537457Y-90774714D01*
X122480314Y-90831857D01*
X122394600Y-90860428D01*
X122251742Y-90860428D01*
X123108885Y-90460428D02*
X123108885Y-90860428D01*
X122966028Y-90231857D02*
X122823171Y-90660428D01*
X123194600Y-90660428D01*
X114631742Y-90860428D02*
X114631742Y-90260428D01*
X114774600Y-90260428D01*
X114860314Y-90289000D01*
X114917457Y-90346142D01*
X114946028Y-90403285D01*
X114974600Y-90517571D01*
X114974600Y-90603285D01*
X114946028Y-90717571D01*
X114917457Y-90774714D01*
X114860314Y-90831857D01*
X114774600Y-90860428D01*
X114631742Y-90860428D01*
X115546028Y-90860428D02*
X115203171Y-90860428D01*
X115374600Y-90860428D02*
X115374600Y-90260428D01*
X115317457Y-90346142D01*
X115260314Y-90403285D01*
X115203171Y-90431857D01*
X112091742Y-90860428D02*
X112091742Y-90260428D01*
X112234600Y-90260428D01*
X112320314Y-90289000D01*
X112377457Y-90346142D01*
X112406028Y-90403285D01*
X112434600Y-90517571D01*
X112434600Y-90603285D01*
X112406028Y-90717571D01*
X112377457Y-90774714D01*
X112320314Y-90831857D01*
X112234600Y-90860428D01*
X112091742Y-90860428D01*
X112806028Y-90260428D02*
X112863171Y-90260428D01*
X112920314Y-90289000D01*
X112948885Y-90317571D01*
X112977457Y-90374714D01*
X113006028Y-90489000D01*
X113006028Y-90631857D01*
X112977457Y-90746142D01*
X112948885Y-90803285D01*
X112920314Y-90831857D01*
X112863171Y-90860428D01*
X112806028Y-90860428D01*
X112748885Y-90831857D01*
X112720314Y-90803285D01*
X112691742Y-90746142D01*
X112663171Y-90631857D01*
X112663171Y-90489000D01*
X112691742Y-90374714D01*
X112720314Y-90317571D01*
X112748885Y-90289000D01*
X112806028Y-90260428D01*
X140965180Y-80292266D02*
X140488990Y-80625600D01*
X140965180Y-80863695D02*
X139965180Y-80863695D01*
X139965180Y-80482742D01*
X140012800Y-80387504D01*
X140060419Y-80339885D01*
X140155657Y-80292266D01*
X140298514Y-80292266D01*
X140393752Y-80339885D01*
X140441371Y-80387504D01*
X140488990Y-80482742D01*
X140488990Y-80863695D01*
X140965180Y-79339885D02*
X140965180Y-79911314D01*
X140965180Y-79625600D02*
X139965180Y-79625600D01*
X140108038Y-79720838D01*
X140203276Y-79816076D01*
X140250895Y-79911314D01*
M02*
