M48
; DRILL file {KiCad 5.1.5} date Thu 05 Dec 2019 07:55:28 PM CET
; FORMAT={-:-/ absolute / inch / decimal}
; #@! TF.CreationDate,2019-12-05T19:55:28+01:00
; #@! TF.GenerationSoftware,Kicad,Pcbnew,5.1.5
FMAT,2
INCH
T1C0.0138
T2C0.0335
T3C0.0394
%
G90
G05
T1
X4.913Y-2.936
X5.471Y-3.146
T2
X4.4305Y-2.8265
X4.4305Y-3.6265
X4.5305Y-2.8265
X4.5305Y-3.6265
X4.6305Y-2.8265
X4.6305Y-3.6265
X4.7305Y-2.8265
X4.7305Y-3.6265
X4.8305Y-2.8265
X4.8305Y-3.6265
X4.9305Y-2.8265
X4.9305Y-3.6265
X5.0305Y-2.8265
X5.0305Y-3.6265
X5.1305Y-2.8265
X5.1305Y-3.6265
X5.2305Y-2.8265
X5.2305Y-3.6265
X5.3305Y-2.8265
X5.3305Y-3.6265
X5.4305Y-2.8265
X5.4305Y-3.6265
X5.5305Y-2.8265
X5.5305Y-3.6265
X5.6305Y-2.8265
X5.6305Y-3.6265
X5.7305Y-2.8265
X5.7305Y-3.6265
T3
X5.264Y-3.031
X5.264Y-3.131
X5.264Y-3.231
X5.264Y-3.331
X5.101Y-3.027
X5.101Y-3.127
X5.101Y-3.227
X5.101Y-3.327
X5.101Y-3.427
X4.431Y-3.154
X4.431Y-3.254
X4.431Y-3.354
X5.731Y-3.109
X5.731Y-3.209
X5.731Y-3.309
T0
M30
