G04 #@! TF.GenerationSoftware,KiCad,Pcbnew,5.1.5*
G04 #@! TF.CreationDate,2019-12-05T19:55:23+01:00*
G04 #@! TF.ProjectId,tiny328room,74696e79-3332-4387-926f-6f6d2e6b6963,rev?*
G04 #@! TF.SameCoordinates,Original*
G04 #@! TF.FileFunction,Soldermask,Top*
G04 #@! TF.FilePolarity,Negative*
%FSLAX46Y46*%
G04 Gerber Fmt 4.6, Leading zero omitted, Abs format (unit mm)*
G04 Created by KiCad (PCBNEW 5.1.5) date 2019-12-05 19:55:23*
%MOMM*%
%LPD*%
G04 APERTURE LIST*
%ADD10R,1.700000X1.700000*%
%ADD11O,1.700000X1.700000*%
%ADD12R,1.600000X1.600000*%
%ADD13C,0.100000*%
G04 APERTURE END LIST*
D10*
X129565400Y-76885800D03*
D11*
X129565400Y-79425800D03*
X129565400Y-81965800D03*
X129565400Y-84505800D03*
X129565400Y-87045800D03*
D10*
X133705600Y-84607400D03*
D11*
X133705600Y-82067400D03*
X133705600Y-79527400D03*
X133705600Y-76987400D03*
X145567400Y-84048600D03*
X145567400Y-81508600D03*
D10*
X145567400Y-78968600D03*
X112547400Y-80111600D03*
D11*
X112547400Y-82651600D03*
X112547400Y-85191600D03*
D12*
X112534600Y-92113000D03*
X115074600Y-92113000D03*
X117614600Y-92113000D03*
X120154600Y-92113000D03*
X122694600Y-92113000D03*
X125234600Y-92113000D03*
X127774600Y-92113000D03*
X130314600Y-92113000D03*
X132854600Y-92113000D03*
X135394600Y-92113000D03*
X137934600Y-92113000D03*
X140474600Y-92113000D03*
X143014600Y-92113000D03*
X145554600Y-92113000D03*
X112534600Y-71793000D03*
X115074600Y-71793000D03*
X117614600Y-71793000D03*
X120154600Y-71793000D03*
X122694600Y-71793000D03*
X125234600Y-71793000D03*
X127774600Y-71793000D03*
X130314600Y-71793000D03*
X132854600Y-71793000D03*
X135394600Y-71793000D03*
X137934600Y-71793000D03*
X140474600Y-71793000D03*
X143014600Y-71793000D03*
X145554600Y-71793000D03*
D13*
G36*
X142373779Y-78777544D02*
G01*
X142396834Y-78780963D01*
X142419443Y-78786627D01*
X142441387Y-78794479D01*
X142462457Y-78804444D01*
X142482448Y-78816426D01*
X142501168Y-78830310D01*
X142518438Y-78845962D01*
X142534090Y-78863232D01*
X142547974Y-78881952D01*
X142559956Y-78901943D01*
X142569921Y-78923013D01*
X142577773Y-78944957D01*
X142583437Y-78967566D01*
X142586856Y-78990621D01*
X142588000Y-79013900D01*
X142588000Y-79588900D01*
X142586856Y-79612179D01*
X142583437Y-79635234D01*
X142577773Y-79657843D01*
X142569921Y-79679787D01*
X142559956Y-79700857D01*
X142547974Y-79720848D01*
X142534090Y-79739568D01*
X142518438Y-79756838D01*
X142501168Y-79772490D01*
X142482448Y-79786374D01*
X142462457Y-79798356D01*
X142441387Y-79808321D01*
X142419443Y-79816173D01*
X142396834Y-79821837D01*
X142373779Y-79825256D01*
X142350500Y-79826400D01*
X141875500Y-79826400D01*
X141852221Y-79825256D01*
X141829166Y-79821837D01*
X141806557Y-79816173D01*
X141784613Y-79808321D01*
X141763543Y-79798356D01*
X141743552Y-79786374D01*
X141724832Y-79772490D01*
X141707562Y-79756838D01*
X141691910Y-79739568D01*
X141678026Y-79720848D01*
X141666044Y-79700857D01*
X141656079Y-79679787D01*
X141648227Y-79657843D01*
X141642563Y-79635234D01*
X141639144Y-79612179D01*
X141638000Y-79588900D01*
X141638000Y-79013900D01*
X141639144Y-78990621D01*
X141642563Y-78967566D01*
X141648227Y-78944957D01*
X141656079Y-78923013D01*
X141666044Y-78901943D01*
X141678026Y-78881952D01*
X141691910Y-78863232D01*
X141707562Y-78845962D01*
X141724832Y-78830310D01*
X141743552Y-78816426D01*
X141763543Y-78804444D01*
X141784613Y-78794479D01*
X141806557Y-78786627D01*
X141829166Y-78780963D01*
X141852221Y-78777544D01*
X141875500Y-78776400D01*
X142350500Y-78776400D01*
X142373779Y-78777544D01*
G37*
G36*
X142373779Y-80527544D02*
G01*
X142396834Y-80530963D01*
X142419443Y-80536627D01*
X142441387Y-80544479D01*
X142462457Y-80554444D01*
X142482448Y-80566426D01*
X142501168Y-80580310D01*
X142518438Y-80595962D01*
X142534090Y-80613232D01*
X142547974Y-80631952D01*
X142559956Y-80651943D01*
X142569921Y-80673013D01*
X142577773Y-80694957D01*
X142583437Y-80717566D01*
X142586856Y-80740621D01*
X142588000Y-80763900D01*
X142588000Y-81338900D01*
X142586856Y-81362179D01*
X142583437Y-81385234D01*
X142577773Y-81407843D01*
X142569921Y-81429787D01*
X142559956Y-81450857D01*
X142547974Y-81470848D01*
X142534090Y-81489568D01*
X142518438Y-81506838D01*
X142501168Y-81522490D01*
X142482448Y-81536374D01*
X142462457Y-81548356D01*
X142441387Y-81558321D01*
X142419443Y-81566173D01*
X142396834Y-81571837D01*
X142373779Y-81575256D01*
X142350500Y-81576400D01*
X141875500Y-81576400D01*
X141852221Y-81575256D01*
X141829166Y-81571837D01*
X141806557Y-81566173D01*
X141784613Y-81558321D01*
X141763543Y-81548356D01*
X141743552Y-81536374D01*
X141724832Y-81522490D01*
X141707562Y-81506838D01*
X141691910Y-81489568D01*
X141678026Y-81470848D01*
X141666044Y-81450857D01*
X141656079Y-81429787D01*
X141648227Y-81407843D01*
X141642563Y-81385234D01*
X141639144Y-81362179D01*
X141638000Y-81338900D01*
X141638000Y-80763900D01*
X141639144Y-80740621D01*
X141642563Y-80717566D01*
X141648227Y-80694957D01*
X141656079Y-80673013D01*
X141666044Y-80651943D01*
X141678026Y-80631952D01*
X141691910Y-80613232D01*
X141707562Y-80595962D01*
X141724832Y-80580310D01*
X141743552Y-80566426D01*
X141763543Y-80554444D01*
X141784613Y-80544479D01*
X141806557Y-80536627D01*
X141829166Y-80530963D01*
X141852221Y-80527544D01*
X141875500Y-80526400D01*
X142350500Y-80526400D01*
X142373779Y-80527544D01*
G37*
M02*
