G04 #@! TF.GenerationSoftware,KiCad,Pcbnew,5.1.5*
G04 #@! TF.CreationDate,2019-12-05T19:55:23+01:00*
G04 #@! TF.ProjectId,tiny328room,74696e79-3332-4387-926f-6f6d2e6b6963,rev?*
G04 #@! TF.SameCoordinates,Original*
G04 #@! TF.FileFunction,Copper,L2,Bot*
G04 #@! TF.FilePolarity,Positive*
%FSLAX46Y46*%
G04 Gerber Fmt 4.6, Leading zero omitted, Abs format (unit mm)*
G04 Created by KiCad (PCBNEW 5.1.5) date 2019-12-05 19:55:23*
%MOMM*%
%LPD*%
G04 APERTURE LIST*
%ADD10R,1.700000X1.700000*%
%ADD11O,1.700000X1.700000*%
%ADD12R,1.600000X1.600000*%
%ADD13C,0.889000*%
%ADD14C,0.400000*%
%ADD15C,0.254000*%
G04 APERTURE END LIST*
D10*
X129565400Y-76885800D03*
D11*
X129565400Y-79425800D03*
X129565400Y-81965800D03*
X129565400Y-84505800D03*
X129565400Y-87045800D03*
D10*
X133705600Y-84607400D03*
D11*
X133705600Y-82067400D03*
X133705600Y-79527400D03*
X133705600Y-76987400D03*
X145567400Y-84048600D03*
X145567400Y-81508600D03*
D10*
X145567400Y-78968600D03*
X112547400Y-80111600D03*
D11*
X112547400Y-82651600D03*
X112547400Y-85191600D03*
D12*
X112534600Y-92113000D03*
X115074600Y-92113000D03*
X117614600Y-92113000D03*
X120154600Y-92113000D03*
X122694600Y-92113000D03*
X125234600Y-92113000D03*
X127774600Y-92113000D03*
X130314600Y-92113000D03*
X132854600Y-92113000D03*
X135394600Y-92113000D03*
X137934600Y-92113000D03*
X140474600Y-92113000D03*
X143014600Y-92113000D03*
X145554600Y-92113000D03*
X112534600Y-71793000D03*
X115074600Y-71793000D03*
X117614600Y-71793000D03*
X120154600Y-71793000D03*
X122694600Y-71793000D03*
X125234600Y-71793000D03*
X127774600Y-71793000D03*
X130314600Y-71793000D03*
X132854600Y-71793000D03*
X135394600Y-71793000D03*
X137934600Y-71793000D03*
X140474600Y-71793000D03*
X143014600Y-71793000D03*
X145554600Y-71793000D03*
D13*
X138963400Y-79908400D03*
X124790200Y-74574400D03*
D14*
X112547400Y-80111600D02*
X117856000Y-80111600D01*
X121081800Y-76885800D02*
X129565400Y-76885800D01*
X117856000Y-80111600D02*
X121081800Y-76885800D01*
X133705600Y-84607400D02*
X136601200Y-84607400D01*
X136601200Y-84607400D02*
X142240000Y-78968600D01*
X143154400Y-78968600D02*
X143014600Y-78828800D01*
X142240000Y-78968600D02*
X143154400Y-78968600D01*
X143014600Y-78828800D02*
X143014600Y-71793000D01*
X143154400Y-78968600D02*
X145567400Y-78968600D01*
X112547400Y-85191600D02*
X117068600Y-85191600D01*
X122834400Y-79425800D02*
X129565400Y-79425800D01*
X117068600Y-85191600D02*
X122834400Y-79425800D01*
X131064000Y-79425800D02*
X133705600Y-82067400D01*
X129565400Y-79425800D02*
X131064000Y-79425800D01*
X137934600Y-72993000D02*
X137934600Y-71793000D01*
X137934600Y-79040481D02*
X137934600Y-72993000D01*
X134907681Y-82067400D02*
X137934600Y-79040481D01*
X133705600Y-82067400D02*
X134907681Y-82067400D01*
X137934600Y-79040481D02*
X138095481Y-79040481D01*
X138095481Y-79040481D02*
X138963400Y-79908400D01*
X122694600Y-72993000D02*
X124199800Y-74498200D01*
X122694600Y-71793000D02*
X122694600Y-72993000D01*
X131216400Y-74498200D02*
X133705600Y-76987400D01*
X124714000Y-74498200D02*
X124790200Y-74574400D01*
X124790200Y-74574400D02*
X131216400Y-74498200D01*
X124199800Y-74498200D02*
X124714000Y-74498200D01*
X135394600Y-91681400D02*
X135394600Y-92113000D01*
X145567400Y-81508600D02*
X135394600Y-91681400D01*
D15*
G36*
X135521600Y-71666000D02*
G01*
X137807600Y-71666000D01*
X137807600Y-71646000D01*
X138061600Y-71646000D01*
X138061600Y-71666000D01*
X138081600Y-71666000D01*
X138081600Y-71920000D01*
X138061600Y-71920000D01*
X138061600Y-73069250D01*
X138220350Y-73228000D01*
X138734600Y-73231072D01*
X138859082Y-73218812D01*
X138978780Y-73182502D01*
X139089094Y-73123537D01*
X139185785Y-73044185D01*
X139204600Y-73021259D01*
X139223415Y-73044185D01*
X139320106Y-73123537D01*
X139430420Y-73182502D01*
X139550118Y-73218812D01*
X139674600Y-73231072D01*
X141274600Y-73231072D01*
X141399082Y-73218812D01*
X141518780Y-73182502D01*
X141629094Y-73123537D01*
X141725785Y-73044185D01*
X141744600Y-73021259D01*
X141763415Y-73044185D01*
X141860106Y-73123537D01*
X141970420Y-73182502D01*
X142090118Y-73218812D01*
X142179601Y-73227625D01*
X142179600Y-78135509D01*
X142076311Y-78145682D01*
X141918913Y-78193428D01*
X141773854Y-78270964D01*
X141646709Y-78375309D01*
X141620561Y-78407171D01*
X136255333Y-83772400D01*
X135193672Y-83772400D01*
X135193672Y-83757400D01*
X135181412Y-83632918D01*
X135145102Y-83513220D01*
X135086137Y-83402906D01*
X135006785Y-83306215D01*
X134910094Y-83226863D01*
X134799780Y-83167898D01*
X134719134Y-83143434D01*
X134803188Y-83067669D01*
X134977241Y-82834320D01*
X135102425Y-82571499D01*
X135147076Y-82424290D01*
X135025755Y-82194400D01*
X133832600Y-82194400D01*
X133832600Y-82214400D01*
X133578600Y-82214400D01*
X133578600Y-82194400D01*
X132385445Y-82194400D01*
X132264124Y-82424290D01*
X132308775Y-82571499D01*
X132433959Y-82834320D01*
X132608012Y-83067669D01*
X132692066Y-83143434D01*
X132611420Y-83167898D01*
X132501106Y-83226863D01*
X132404415Y-83306215D01*
X132325063Y-83402906D01*
X132266098Y-83513220D01*
X132229788Y-83632918D01*
X132217528Y-83757400D01*
X132217528Y-85457400D01*
X132229788Y-85581882D01*
X132266098Y-85701580D01*
X132325063Y-85811894D01*
X132404415Y-85908585D01*
X132501106Y-85987937D01*
X132611420Y-86046902D01*
X132731118Y-86083212D01*
X132855600Y-86095472D01*
X134555600Y-86095472D01*
X134680082Y-86083212D01*
X134799780Y-86046902D01*
X134910094Y-85987937D01*
X135006785Y-85908585D01*
X135086137Y-85811894D01*
X135145102Y-85701580D01*
X135181412Y-85581882D01*
X135193672Y-85457400D01*
X135193672Y-85442400D01*
X136560182Y-85442400D01*
X136601200Y-85446440D01*
X136642218Y-85442400D01*
X136642219Y-85442400D01*
X136764889Y-85430318D01*
X136922287Y-85382572D01*
X137067346Y-85305036D01*
X137194491Y-85200691D01*
X137220646Y-85168821D01*
X142585868Y-79803600D01*
X143113381Y-79803600D01*
X143154399Y-79807640D01*
X143195418Y-79803600D01*
X144079328Y-79803600D01*
X144079328Y-79818600D01*
X144091588Y-79943082D01*
X144127898Y-80062780D01*
X144186863Y-80173094D01*
X144266215Y-80269785D01*
X144362906Y-80349137D01*
X144473220Y-80408102D01*
X144545780Y-80430113D01*
X144413925Y-80561968D01*
X144251410Y-80805189D01*
X144139468Y-81075442D01*
X144082400Y-81362340D01*
X144082400Y-81654860D01*
X144108593Y-81786538D01*
X135220205Y-90674928D01*
X134594600Y-90674928D01*
X134470118Y-90687188D01*
X134350420Y-90723498D01*
X134240106Y-90782463D01*
X134143415Y-90861815D01*
X134124600Y-90884741D01*
X134105785Y-90861815D01*
X134009094Y-90782463D01*
X133898780Y-90723498D01*
X133779082Y-90687188D01*
X133654600Y-90674928D01*
X132054600Y-90674928D01*
X131930118Y-90687188D01*
X131810420Y-90723498D01*
X131700106Y-90782463D01*
X131603415Y-90861815D01*
X131584600Y-90884741D01*
X131565785Y-90861815D01*
X131469094Y-90782463D01*
X131358780Y-90723498D01*
X131239082Y-90687188D01*
X131114600Y-90674928D01*
X129514600Y-90674928D01*
X129390118Y-90687188D01*
X129270420Y-90723498D01*
X129160106Y-90782463D01*
X129063415Y-90861815D01*
X129044600Y-90884741D01*
X129025785Y-90861815D01*
X128929094Y-90782463D01*
X128818780Y-90723498D01*
X128699082Y-90687188D01*
X128574600Y-90674928D01*
X126974600Y-90674928D01*
X126850118Y-90687188D01*
X126730420Y-90723498D01*
X126620106Y-90782463D01*
X126523415Y-90861815D01*
X126504600Y-90884741D01*
X126485785Y-90861815D01*
X126389094Y-90782463D01*
X126278780Y-90723498D01*
X126159082Y-90687188D01*
X126034600Y-90674928D01*
X124434600Y-90674928D01*
X124310118Y-90687188D01*
X124190420Y-90723498D01*
X124080106Y-90782463D01*
X123983415Y-90861815D01*
X123964600Y-90884741D01*
X123945785Y-90861815D01*
X123849094Y-90782463D01*
X123738780Y-90723498D01*
X123619082Y-90687188D01*
X123494600Y-90674928D01*
X121894600Y-90674928D01*
X121770118Y-90687188D01*
X121650420Y-90723498D01*
X121540106Y-90782463D01*
X121443415Y-90861815D01*
X121424600Y-90884741D01*
X121405785Y-90861815D01*
X121309094Y-90782463D01*
X121198780Y-90723498D01*
X121079082Y-90687188D01*
X120954600Y-90674928D01*
X119354600Y-90674928D01*
X119230118Y-90687188D01*
X119110420Y-90723498D01*
X119000106Y-90782463D01*
X118903415Y-90861815D01*
X118884600Y-90884741D01*
X118865785Y-90861815D01*
X118769094Y-90782463D01*
X118658780Y-90723498D01*
X118539082Y-90687188D01*
X118414600Y-90674928D01*
X116814600Y-90674928D01*
X116690118Y-90687188D01*
X116570420Y-90723498D01*
X116460106Y-90782463D01*
X116363415Y-90861815D01*
X116344600Y-90884741D01*
X116325785Y-90861815D01*
X116229094Y-90782463D01*
X116118780Y-90723498D01*
X115999082Y-90687188D01*
X115874600Y-90674928D01*
X114274600Y-90674928D01*
X114150118Y-90687188D01*
X114030420Y-90723498D01*
X113920106Y-90782463D01*
X113823415Y-90861815D01*
X113804600Y-90884741D01*
X113785785Y-90861815D01*
X113689094Y-90782463D01*
X113578780Y-90723498D01*
X113459082Y-90687188D01*
X113334600Y-90674928D01*
X111911600Y-90674928D01*
X111911600Y-86533048D01*
X111916148Y-86535757D01*
X112190509Y-86633081D01*
X112420400Y-86512414D01*
X112420400Y-85318600D01*
X112674400Y-85318600D01*
X112674400Y-86512414D01*
X112904291Y-86633081D01*
X113178652Y-86535757D01*
X113428755Y-86386778D01*
X113644988Y-86191869D01*
X113819041Y-85958520D01*
X113944225Y-85695699D01*
X113988876Y-85548490D01*
X113867555Y-85318600D01*
X112674400Y-85318600D01*
X112420400Y-85318600D01*
X112400400Y-85318600D01*
X112400400Y-85064600D01*
X112420400Y-85064600D01*
X112420400Y-85044600D01*
X112674400Y-85044600D01*
X112674400Y-85064600D01*
X113867555Y-85064600D01*
X113988876Y-84834710D01*
X113944225Y-84687501D01*
X113819041Y-84424680D01*
X113644988Y-84191331D01*
X113428755Y-83996422D01*
X113311866Y-83926795D01*
X113494032Y-83805075D01*
X113700875Y-83598232D01*
X113863390Y-83355011D01*
X113975332Y-83084758D01*
X114032400Y-82797860D01*
X114032400Y-82505340D01*
X113975332Y-82218442D01*
X113863390Y-81948189D01*
X113777430Y-81819540D01*
X128080400Y-81819540D01*
X128080400Y-82112060D01*
X128137468Y-82398958D01*
X128249410Y-82669211D01*
X128411925Y-82912432D01*
X128618768Y-83119275D01*
X128793160Y-83235800D01*
X128618768Y-83352325D01*
X128411925Y-83559168D01*
X128249410Y-83802389D01*
X128137468Y-84072642D01*
X128080400Y-84359540D01*
X128080400Y-84652060D01*
X128137468Y-84938958D01*
X128249410Y-85209211D01*
X128411925Y-85452432D01*
X128618768Y-85659275D01*
X128793160Y-85775800D01*
X128618768Y-85892325D01*
X128411925Y-86099168D01*
X128249410Y-86342389D01*
X128137468Y-86612642D01*
X128080400Y-86899540D01*
X128080400Y-87192060D01*
X128137468Y-87478958D01*
X128249410Y-87749211D01*
X128411925Y-87992432D01*
X128618768Y-88199275D01*
X128861989Y-88361790D01*
X129132242Y-88473732D01*
X129419140Y-88530800D01*
X129711660Y-88530800D01*
X129998558Y-88473732D01*
X130268811Y-88361790D01*
X130512032Y-88199275D01*
X130718875Y-87992432D01*
X130881390Y-87749211D01*
X130993332Y-87478958D01*
X131050400Y-87192060D01*
X131050400Y-86899540D01*
X130993332Y-86612642D01*
X130881390Y-86342389D01*
X130718875Y-86099168D01*
X130512032Y-85892325D01*
X130337640Y-85775800D01*
X130512032Y-85659275D01*
X130718875Y-85452432D01*
X130881390Y-85209211D01*
X130993332Y-84938958D01*
X131050400Y-84652060D01*
X131050400Y-84359540D01*
X130993332Y-84072642D01*
X130881390Y-83802389D01*
X130718875Y-83559168D01*
X130512032Y-83352325D01*
X130337640Y-83235800D01*
X130512032Y-83119275D01*
X130718875Y-82912432D01*
X130881390Y-82669211D01*
X130993332Y-82398958D01*
X131050400Y-82112060D01*
X131050400Y-81819540D01*
X130993332Y-81532642D01*
X130881390Y-81262389D01*
X130718875Y-81019168D01*
X130512032Y-80812325D01*
X130329866Y-80690605D01*
X130446755Y-80620978D01*
X130662988Y-80426069D01*
X130837041Y-80192720D01*
X130962225Y-79929899D01*
X131006876Y-79782690D01*
X130885555Y-79552800D01*
X129692400Y-79552800D01*
X129692400Y-79572800D01*
X129438400Y-79572800D01*
X129438400Y-79552800D01*
X128245245Y-79552800D01*
X128123924Y-79782690D01*
X128168575Y-79929899D01*
X128293759Y-80192720D01*
X128467812Y-80426069D01*
X128684045Y-80620978D01*
X128800934Y-80690605D01*
X128618768Y-80812325D01*
X128411925Y-81019168D01*
X128249410Y-81262389D01*
X128137468Y-81532642D01*
X128080400Y-81819540D01*
X113777430Y-81819540D01*
X113700875Y-81704968D01*
X113569020Y-81573113D01*
X113641580Y-81551102D01*
X113751894Y-81492137D01*
X113848585Y-81412785D01*
X113927937Y-81316094D01*
X113986902Y-81205780D01*
X114023212Y-81086082D01*
X114035472Y-80961600D01*
X114035472Y-80946600D01*
X117814982Y-80946600D01*
X117856000Y-80950640D01*
X117897018Y-80946600D01*
X117897019Y-80946600D01*
X118019689Y-80934518D01*
X118177087Y-80886772D01*
X118322146Y-80809236D01*
X118449291Y-80704891D01*
X118475446Y-80673021D01*
X121427668Y-77720800D01*
X128077328Y-77720800D01*
X128077328Y-77735800D01*
X128089588Y-77860282D01*
X128125898Y-77979980D01*
X128184863Y-78090294D01*
X128264215Y-78186985D01*
X128360906Y-78266337D01*
X128471220Y-78325302D01*
X128551866Y-78349766D01*
X128467812Y-78425531D01*
X128293759Y-78658880D01*
X128168575Y-78921701D01*
X128123924Y-79068910D01*
X128245245Y-79298800D01*
X129438400Y-79298800D01*
X129438400Y-79278800D01*
X129692400Y-79278800D01*
X129692400Y-79298800D01*
X130885555Y-79298800D01*
X131006876Y-79068910D01*
X130962225Y-78921701D01*
X130837041Y-78658880D01*
X130662988Y-78425531D01*
X130578934Y-78349766D01*
X130659580Y-78325302D01*
X130769894Y-78266337D01*
X130866585Y-78186985D01*
X130945937Y-78090294D01*
X131004902Y-77979980D01*
X131041212Y-77860282D01*
X131053472Y-77735800D01*
X131053472Y-76035800D01*
X131041212Y-75911318D01*
X131004902Y-75791620D01*
X130945937Y-75681306D01*
X130866585Y-75584615D01*
X130769894Y-75505263D01*
X130659580Y-75446298D01*
X130539882Y-75409988D01*
X130415400Y-75397728D01*
X128715400Y-75397728D01*
X128590918Y-75409988D01*
X128471220Y-75446298D01*
X128360906Y-75505263D01*
X128264215Y-75584615D01*
X128184863Y-75681306D01*
X128125898Y-75791620D01*
X128089588Y-75911318D01*
X128077328Y-76035800D01*
X128077328Y-76050800D01*
X121122818Y-76050800D01*
X121081799Y-76046760D01*
X121040781Y-76050800D01*
X120918111Y-76062882D01*
X120760713Y-76110628D01*
X120615654Y-76188164D01*
X120488509Y-76292509D01*
X120462359Y-76324373D01*
X117510133Y-79276600D01*
X114035472Y-79276600D01*
X114035472Y-79261600D01*
X114023212Y-79137118D01*
X113986902Y-79017420D01*
X113927937Y-78907106D01*
X113848585Y-78810415D01*
X113751894Y-78731063D01*
X113641580Y-78672098D01*
X113521882Y-78635788D01*
X113397400Y-78623528D01*
X111911600Y-78623528D01*
X111911600Y-73231072D01*
X113334600Y-73231072D01*
X113459082Y-73218812D01*
X113578780Y-73182502D01*
X113689094Y-73123537D01*
X113785785Y-73044185D01*
X113804600Y-73021259D01*
X113823415Y-73044185D01*
X113920106Y-73123537D01*
X114030420Y-73182502D01*
X114150118Y-73218812D01*
X114274600Y-73231072D01*
X115874600Y-73231072D01*
X115999082Y-73218812D01*
X116118780Y-73182502D01*
X116229094Y-73123537D01*
X116325785Y-73044185D01*
X116344600Y-73021259D01*
X116363415Y-73044185D01*
X116460106Y-73123537D01*
X116570420Y-73182502D01*
X116690118Y-73218812D01*
X116814600Y-73231072D01*
X118414600Y-73231072D01*
X118539082Y-73218812D01*
X118658780Y-73182502D01*
X118769094Y-73123537D01*
X118865785Y-73044185D01*
X118884600Y-73021259D01*
X118903415Y-73044185D01*
X119000106Y-73123537D01*
X119110420Y-73182502D01*
X119230118Y-73218812D01*
X119354600Y-73231072D01*
X120954600Y-73231072D01*
X121079082Y-73218812D01*
X121198780Y-73182502D01*
X121309094Y-73123537D01*
X121405785Y-73044185D01*
X121424600Y-73021259D01*
X121443415Y-73044185D01*
X121540106Y-73123537D01*
X121650420Y-73182502D01*
X121770118Y-73218812D01*
X121894235Y-73231036D01*
X121919428Y-73314086D01*
X121919429Y-73314087D01*
X121996965Y-73459146D01*
X122101310Y-73586291D01*
X122133174Y-73612441D01*
X123580359Y-75059626D01*
X123606509Y-75091491D01*
X123733654Y-75195836D01*
X123878713Y-75273372D01*
X123999025Y-75309868D01*
X124102059Y-75412902D01*
X124278865Y-75531040D01*
X124475322Y-75612415D01*
X124683879Y-75653900D01*
X124896521Y-75653900D01*
X125105078Y-75612415D01*
X125301535Y-75531040D01*
X125478341Y-75412902D01*
X125490084Y-75401159D01*
X130874643Y-75337310D01*
X132246793Y-76709461D01*
X132220600Y-76841140D01*
X132220600Y-77133660D01*
X132277668Y-77420558D01*
X132389610Y-77690811D01*
X132552125Y-77934032D01*
X132758968Y-78140875D01*
X132933360Y-78257400D01*
X132758968Y-78373925D01*
X132552125Y-78580768D01*
X132389610Y-78823989D01*
X132277668Y-79094242D01*
X132220600Y-79381140D01*
X132220600Y-79673660D01*
X132277668Y-79960558D01*
X132389610Y-80230811D01*
X132552125Y-80474032D01*
X132758968Y-80680875D01*
X132941134Y-80802595D01*
X132824245Y-80872222D01*
X132608012Y-81067131D01*
X132433959Y-81300480D01*
X132308775Y-81563301D01*
X132264124Y-81710510D01*
X132385445Y-81940400D01*
X133578600Y-81940400D01*
X133578600Y-81920400D01*
X133832600Y-81920400D01*
X133832600Y-81940400D01*
X135025755Y-81940400D01*
X135147076Y-81710510D01*
X135102425Y-81563301D01*
X134977241Y-81300480D01*
X134803188Y-81067131D01*
X134586955Y-80872222D01*
X134470066Y-80802595D01*
X134652232Y-80680875D01*
X134859075Y-80474032D01*
X135021590Y-80230811D01*
X135133532Y-79960558D01*
X135190600Y-79673660D01*
X135190600Y-79381140D01*
X135133532Y-79094242D01*
X135021590Y-78823989D01*
X134859075Y-78580768D01*
X134652232Y-78373925D01*
X134477840Y-78257400D01*
X134652232Y-78140875D01*
X134859075Y-77934032D01*
X135021590Y-77690811D01*
X135133532Y-77420558D01*
X135190600Y-77133660D01*
X135190600Y-76841140D01*
X135133532Y-76554242D01*
X135021590Y-76283989D01*
X134859075Y-76040768D01*
X134652232Y-75833925D01*
X134409011Y-75671410D01*
X134138758Y-75559468D01*
X133851860Y-75502400D01*
X133559340Y-75502400D01*
X133427661Y-75528593D01*
X131832332Y-73933265D01*
X131802614Y-73897917D01*
X131742302Y-73849605D01*
X131682545Y-73800564D01*
X131678137Y-73798208D01*
X131674241Y-73795087D01*
X131605683Y-73759480D01*
X131537486Y-73723028D01*
X131532704Y-73721578D01*
X131528273Y-73719276D01*
X131454093Y-73697731D01*
X131380088Y-73675282D01*
X131375113Y-73674792D01*
X131370320Y-73673400D01*
X131293382Y-73666742D01*
X131216400Y-73659160D01*
X131170437Y-73663687D01*
X125471407Y-73731265D01*
X125301535Y-73617760D01*
X125105078Y-73536385D01*
X124896521Y-73494900D01*
X124683879Y-73494900D01*
X124475322Y-73536385D01*
X124435392Y-73552924D01*
X123935277Y-73052809D01*
X123945785Y-73044185D01*
X123964600Y-73021259D01*
X123983415Y-73044185D01*
X124080106Y-73123537D01*
X124190420Y-73182502D01*
X124310118Y-73218812D01*
X124434600Y-73231072D01*
X126034600Y-73231072D01*
X126159082Y-73218812D01*
X126278780Y-73182502D01*
X126389094Y-73123537D01*
X126485785Y-73044185D01*
X126504600Y-73021259D01*
X126523415Y-73044185D01*
X126620106Y-73123537D01*
X126730420Y-73182502D01*
X126850118Y-73218812D01*
X126974600Y-73231072D01*
X128574600Y-73231072D01*
X128699082Y-73218812D01*
X128818780Y-73182502D01*
X128929094Y-73123537D01*
X129025785Y-73044185D01*
X129044600Y-73021259D01*
X129063415Y-73044185D01*
X129160106Y-73123537D01*
X129270420Y-73182502D01*
X129390118Y-73218812D01*
X129514600Y-73231072D01*
X131114600Y-73231072D01*
X131239082Y-73218812D01*
X131358780Y-73182502D01*
X131469094Y-73123537D01*
X131565785Y-73044185D01*
X131584600Y-73021259D01*
X131603415Y-73044185D01*
X131700106Y-73123537D01*
X131810420Y-73182502D01*
X131930118Y-73218812D01*
X132054600Y-73231072D01*
X133654600Y-73231072D01*
X133779082Y-73218812D01*
X133898780Y-73182502D01*
X134009094Y-73123537D01*
X134105785Y-73044185D01*
X134124600Y-73021259D01*
X134143415Y-73044185D01*
X134240106Y-73123537D01*
X134350420Y-73182502D01*
X134470118Y-73218812D01*
X134594600Y-73231072D01*
X135108850Y-73228000D01*
X135267600Y-73069250D01*
X135267600Y-71920000D01*
X135521600Y-71920000D01*
X135521600Y-73069250D01*
X135680350Y-73228000D01*
X136194600Y-73231072D01*
X136319082Y-73218812D01*
X136438780Y-73182502D01*
X136549094Y-73123537D01*
X136645785Y-73044185D01*
X136664600Y-73021259D01*
X136683415Y-73044185D01*
X136780106Y-73123537D01*
X136890420Y-73182502D01*
X137010118Y-73218812D01*
X137134600Y-73231072D01*
X137648850Y-73228000D01*
X137807600Y-73069250D01*
X137807600Y-71920000D01*
X135521600Y-71920000D01*
X135267600Y-71920000D01*
X135247600Y-71920000D01*
X135247600Y-71666000D01*
X135267600Y-71666000D01*
X135267600Y-71646000D01*
X135521600Y-71646000D01*
X135521600Y-71666000D01*
G37*
X135521600Y-71666000D02*
X137807600Y-71666000D01*
X137807600Y-71646000D01*
X138061600Y-71646000D01*
X138061600Y-71666000D01*
X138081600Y-71666000D01*
X138081600Y-71920000D01*
X138061600Y-71920000D01*
X138061600Y-73069250D01*
X138220350Y-73228000D01*
X138734600Y-73231072D01*
X138859082Y-73218812D01*
X138978780Y-73182502D01*
X139089094Y-73123537D01*
X139185785Y-73044185D01*
X139204600Y-73021259D01*
X139223415Y-73044185D01*
X139320106Y-73123537D01*
X139430420Y-73182502D01*
X139550118Y-73218812D01*
X139674600Y-73231072D01*
X141274600Y-73231072D01*
X141399082Y-73218812D01*
X141518780Y-73182502D01*
X141629094Y-73123537D01*
X141725785Y-73044185D01*
X141744600Y-73021259D01*
X141763415Y-73044185D01*
X141860106Y-73123537D01*
X141970420Y-73182502D01*
X142090118Y-73218812D01*
X142179601Y-73227625D01*
X142179600Y-78135509D01*
X142076311Y-78145682D01*
X141918913Y-78193428D01*
X141773854Y-78270964D01*
X141646709Y-78375309D01*
X141620561Y-78407171D01*
X136255333Y-83772400D01*
X135193672Y-83772400D01*
X135193672Y-83757400D01*
X135181412Y-83632918D01*
X135145102Y-83513220D01*
X135086137Y-83402906D01*
X135006785Y-83306215D01*
X134910094Y-83226863D01*
X134799780Y-83167898D01*
X134719134Y-83143434D01*
X134803188Y-83067669D01*
X134977241Y-82834320D01*
X135102425Y-82571499D01*
X135147076Y-82424290D01*
X135025755Y-82194400D01*
X133832600Y-82194400D01*
X133832600Y-82214400D01*
X133578600Y-82214400D01*
X133578600Y-82194400D01*
X132385445Y-82194400D01*
X132264124Y-82424290D01*
X132308775Y-82571499D01*
X132433959Y-82834320D01*
X132608012Y-83067669D01*
X132692066Y-83143434D01*
X132611420Y-83167898D01*
X132501106Y-83226863D01*
X132404415Y-83306215D01*
X132325063Y-83402906D01*
X132266098Y-83513220D01*
X132229788Y-83632918D01*
X132217528Y-83757400D01*
X132217528Y-85457400D01*
X132229788Y-85581882D01*
X132266098Y-85701580D01*
X132325063Y-85811894D01*
X132404415Y-85908585D01*
X132501106Y-85987937D01*
X132611420Y-86046902D01*
X132731118Y-86083212D01*
X132855600Y-86095472D01*
X134555600Y-86095472D01*
X134680082Y-86083212D01*
X134799780Y-86046902D01*
X134910094Y-85987937D01*
X135006785Y-85908585D01*
X135086137Y-85811894D01*
X135145102Y-85701580D01*
X135181412Y-85581882D01*
X135193672Y-85457400D01*
X135193672Y-85442400D01*
X136560182Y-85442400D01*
X136601200Y-85446440D01*
X136642218Y-85442400D01*
X136642219Y-85442400D01*
X136764889Y-85430318D01*
X136922287Y-85382572D01*
X137067346Y-85305036D01*
X137194491Y-85200691D01*
X137220646Y-85168821D01*
X142585868Y-79803600D01*
X143113381Y-79803600D01*
X143154399Y-79807640D01*
X143195418Y-79803600D01*
X144079328Y-79803600D01*
X144079328Y-79818600D01*
X144091588Y-79943082D01*
X144127898Y-80062780D01*
X144186863Y-80173094D01*
X144266215Y-80269785D01*
X144362906Y-80349137D01*
X144473220Y-80408102D01*
X144545780Y-80430113D01*
X144413925Y-80561968D01*
X144251410Y-80805189D01*
X144139468Y-81075442D01*
X144082400Y-81362340D01*
X144082400Y-81654860D01*
X144108593Y-81786538D01*
X135220205Y-90674928D01*
X134594600Y-90674928D01*
X134470118Y-90687188D01*
X134350420Y-90723498D01*
X134240106Y-90782463D01*
X134143415Y-90861815D01*
X134124600Y-90884741D01*
X134105785Y-90861815D01*
X134009094Y-90782463D01*
X133898780Y-90723498D01*
X133779082Y-90687188D01*
X133654600Y-90674928D01*
X132054600Y-90674928D01*
X131930118Y-90687188D01*
X131810420Y-90723498D01*
X131700106Y-90782463D01*
X131603415Y-90861815D01*
X131584600Y-90884741D01*
X131565785Y-90861815D01*
X131469094Y-90782463D01*
X131358780Y-90723498D01*
X131239082Y-90687188D01*
X131114600Y-90674928D01*
X129514600Y-90674928D01*
X129390118Y-90687188D01*
X129270420Y-90723498D01*
X129160106Y-90782463D01*
X129063415Y-90861815D01*
X129044600Y-90884741D01*
X129025785Y-90861815D01*
X128929094Y-90782463D01*
X128818780Y-90723498D01*
X128699082Y-90687188D01*
X128574600Y-90674928D01*
X126974600Y-90674928D01*
X126850118Y-90687188D01*
X126730420Y-90723498D01*
X126620106Y-90782463D01*
X126523415Y-90861815D01*
X126504600Y-90884741D01*
X126485785Y-90861815D01*
X126389094Y-90782463D01*
X126278780Y-90723498D01*
X126159082Y-90687188D01*
X126034600Y-90674928D01*
X124434600Y-90674928D01*
X124310118Y-90687188D01*
X124190420Y-90723498D01*
X124080106Y-90782463D01*
X123983415Y-90861815D01*
X123964600Y-90884741D01*
X123945785Y-90861815D01*
X123849094Y-90782463D01*
X123738780Y-90723498D01*
X123619082Y-90687188D01*
X123494600Y-90674928D01*
X121894600Y-90674928D01*
X121770118Y-90687188D01*
X121650420Y-90723498D01*
X121540106Y-90782463D01*
X121443415Y-90861815D01*
X121424600Y-90884741D01*
X121405785Y-90861815D01*
X121309094Y-90782463D01*
X121198780Y-90723498D01*
X121079082Y-90687188D01*
X120954600Y-90674928D01*
X119354600Y-90674928D01*
X119230118Y-90687188D01*
X119110420Y-90723498D01*
X119000106Y-90782463D01*
X118903415Y-90861815D01*
X118884600Y-90884741D01*
X118865785Y-90861815D01*
X118769094Y-90782463D01*
X118658780Y-90723498D01*
X118539082Y-90687188D01*
X118414600Y-90674928D01*
X116814600Y-90674928D01*
X116690118Y-90687188D01*
X116570420Y-90723498D01*
X116460106Y-90782463D01*
X116363415Y-90861815D01*
X116344600Y-90884741D01*
X116325785Y-90861815D01*
X116229094Y-90782463D01*
X116118780Y-90723498D01*
X115999082Y-90687188D01*
X115874600Y-90674928D01*
X114274600Y-90674928D01*
X114150118Y-90687188D01*
X114030420Y-90723498D01*
X113920106Y-90782463D01*
X113823415Y-90861815D01*
X113804600Y-90884741D01*
X113785785Y-90861815D01*
X113689094Y-90782463D01*
X113578780Y-90723498D01*
X113459082Y-90687188D01*
X113334600Y-90674928D01*
X111911600Y-90674928D01*
X111911600Y-86533048D01*
X111916148Y-86535757D01*
X112190509Y-86633081D01*
X112420400Y-86512414D01*
X112420400Y-85318600D01*
X112674400Y-85318600D01*
X112674400Y-86512414D01*
X112904291Y-86633081D01*
X113178652Y-86535757D01*
X113428755Y-86386778D01*
X113644988Y-86191869D01*
X113819041Y-85958520D01*
X113944225Y-85695699D01*
X113988876Y-85548490D01*
X113867555Y-85318600D01*
X112674400Y-85318600D01*
X112420400Y-85318600D01*
X112400400Y-85318600D01*
X112400400Y-85064600D01*
X112420400Y-85064600D01*
X112420400Y-85044600D01*
X112674400Y-85044600D01*
X112674400Y-85064600D01*
X113867555Y-85064600D01*
X113988876Y-84834710D01*
X113944225Y-84687501D01*
X113819041Y-84424680D01*
X113644988Y-84191331D01*
X113428755Y-83996422D01*
X113311866Y-83926795D01*
X113494032Y-83805075D01*
X113700875Y-83598232D01*
X113863390Y-83355011D01*
X113975332Y-83084758D01*
X114032400Y-82797860D01*
X114032400Y-82505340D01*
X113975332Y-82218442D01*
X113863390Y-81948189D01*
X113777430Y-81819540D01*
X128080400Y-81819540D01*
X128080400Y-82112060D01*
X128137468Y-82398958D01*
X128249410Y-82669211D01*
X128411925Y-82912432D01*
X128618768Y-83119275D01*
X128793160Y-83235800D01*
X128618768Y-83352325D01*
X128411925Y-83559168D01*
X128249410Y-83802389D01*
X128137468Y-84072642D01*
X128080400Y-84359540D01*
X128080400Y-84652060D01*
X128137468Y-84938958D01*
X128249410Y-85209211D01*
X128411925Y-85452432D01*
X128618768Y-85659275D01*
X128793160Y-85775800D01*
X128618768Y-85892325D01*
X128411925Y-86099168D01*
X128249410Y-86342389D01*
X128137468Y-86612642D01*
X128080400Y-86899540D01*
X128080400Y-87192060D01*
X128137468Y-87478958D01*
X128249410Y-87749211D01*
X128411925Y-87992432D01*
X128618768Y-88199275D01*
X128861989Y-88361790D01*
X129132242Y-88473732D01*
X129419140Y-88530800D01*
X129711660Y-88530800D01*
X129998558Y-88473732D01*
X130268811Y-88361790D01*
X130512032Y-88199275D01*
X130718875Y-87992432D01*
X130881390Y-87749211D01*
X130993332Y-87478958D01*
X131050400Y-87192060D01*
X131050400Y-86899540D01*
X130993332Y-86612642D01*
X130881390Y-86342389D01*
X130718875Y-86099168D01*
X130512032Y-85892325D01*
X130337640Y-85775800D01*
X130512032Y-85659275D01*
X130718875Y-85452432D01*
X130881390Y-85209211D01*
X130993332Y-84938958D01*
X131050400Y-84652060D01*
X131050400Y-84359540D01*
X130993332Y-84072642D01*
X130881390Y-83802389D01*
X130718875Y-83559168D01*
X130512032Y-83352325D01*
X130337640Y-83235800D01*
X130512032Y-83119275D01*
X130718875Y-82912432D01*
X130881390Y-82669211D01*
X130993332Y-82398958D01*
X131050400Y-82112060D01*
X131050400Y-81819540D01*
X130993332Y-81532642D01*
X130881390Y-81262389D01*
X130718875Y-81019168D01*
X130512032Y-80812325D01*
X130329866Y-80690605D01*
X130446755Y-80620978D01*
X130662988Y-80426069D01*
X130837041Y-80192720D01*
X130962225Y-79929899D01*
X131006876Y-79782690D01*
X130885555Y-79552800D01*
X129692400Y-79552800D01*
X129692400Y-79572800D01*
X129438400Y-79572800D01*
X129438400Y-79552800D01*
X128245245Y-79552800D01*
X128123924Y-79782690D01*
X128168575Y-79929899D01*
X128293759Y-80192720D01*
X128467812Y-80426069D01*
X128684045Y-80620978D01*
X128800934Y-80690605D01*
X128618768Y-80812325D01*
X128411925Y-81019168D01*
X128249410Y-81262389D01*
X128137468Y-81532642D01*
X128080400Y-81819540D01*
X113777430Y-81819540D01*
X113700875Y-81704968D01*
X113569020Y-81573113D01*
X113641580Y-81551102D01*
X113751894Y-81492137D01*
X113848585Y-81412785D01*
X113927937Y-81316094D01*
X113986902Y-81205780D01*
X114023212Y-81086082D01*
X114035472Y-80961600D01*
X114035472Y-80946600D01*
X117814982Y-80946600D01*
X117856000Y-80950640D01*
X117897018Y-80946600D01*
X117897019Y-80946600D01*
X118019689Y-80934518D01*
X118177087Y-80886772D01*
X118322146Y-80809236D01*
X118449291Y-80704891D01*
X118475446Y-80673021D01*
X121427668Y-77720800D01*
X128077328Y-77720800D01*
X128077328Y-77735800D01*
X128089588Y-77860282D01*
X128125898Y-77979980D01*
X128184863Y-78090294D01*
X128264215Y-78186985D01*
X128360906Y-78266337D01*
X128471220Y-78325302D01*
X128551866Y-78349766D01*
X128467812Y-78425531D01*
X128293759Y-78658880D01*
X128168575Y-78921701D01*
X128123924Y-79068910D01*
X128245245Y-79298800D01*
X129438400Y-79298800D01*
X129438400Y-79278800D01*
X129692400Y-79278800D01*
X129692400Y-79298800D01*
X130885555Y-79298800D01*
X131006876Y-79068910D01*
X130962225Y-78921701D01*
X130837041Y-78658880D01*
X130662988Y-78425531D01*
X130578934Y-78349766D01*
X130659580Y-78325302D01*
X130769894Y-78266337D01*
X130866585Y-78186985D01*
X130945937Y-78090294D01*
X131004902Y-77979980D01*
X131041212Y-77860282D01*
X131053472Y-77735800D01*
X131053472Y-76035800D01*
X131041212Y-75911318D01*
X131004902Y-75791620D01*
X130945937Y-75681306D01*
X130866585Y-75584615D01*
X130769894Y-75505263D01*
X130659580Y-75446298D01*
X130539882Y-75409988D01*
X130415400Y-75397728D01*
X128715400Y-75397728D01*
X128590918Y-75409988D01*
X128471220Y-75446298D01*
X128360906Y-75505263D01*
X128264215Y-75584615D01*
X128184863Y-75681306D01*
X128125898Y-75791620D01*
X128089588Y-75911318D01*
X128077328Y-76035800D01*
X128077328Y-76050800D01*
X121122818Y-76050800D01*
X121081799Y-76046760D01*
X121040781Y-76050800D01*
X120918111Y-76062882D01*
X120760713Y-76110628D01*
X120615654Y-76188164D01*
X120488509Y-76292509D01*
X120462359Y-76324373D01*
X117510133Y-79276600D01*
X114035472Y-79276600D01*
X114035472Y-79261600D01*
X114023212Y-79137118D01*
X113986902Y-79017420D01*
X113927937Y-78907106D01*
X113848585Y-78810415D01*
X113751894Y-78731063D01*
X113641580Y-78672098D01*
X113521882Y-78635788D01*
X113397400Y-78623528D01*
X111911600Y-78623528D01*
X111911600Y-73231072D01*
X113334600Y-73231072D01*
X113459082Y-73218812D01*
X113578780Y-73182502D01*
X113689094Y-73123537D01*
X113785785Y-73044185D01*
X113804600Y-73021259D01*
X113823415Y-73044185D01*
X113920106Y-73123537D01*
X114030420Y-73182502D01*
X114150118Y-73218812D01*
X114274600Y-73231072D01*
X115874600Y-73231072D01*
X115999082Y-73218812D01*
X116118780Y-73182502D01*
X116229094Y-73123537D01*
X116325785Y-73044185D01*
X116344600Y-73021259D01*
X116363415Y-73044185D01*
X116460106Y-73123537D01*
X116570420Y-73182502D01*
X116690118Y-73218812D01*
X116814600Y-73231072D01*
X118414600Y-73231072D01*
X118539082Y-73218812D01*
X118658780Y-73182502D01*
X118769094Y-73123537D01*
X118865785Y-73044185D01*
X118884600Y-73021259D01*
X118903415Y-73044185D01*
X119000106Y-73123537D01*
X119110420Y-73182502D01*
X119230118Y-73218812D01*
X119354600Y-73231072D01*
X120954600Y-73231072D01*
X121079082Y-73218812D01*
X121198780Y-73182502D01*
X121309094Y-73123537D01*
X121405785Y-73044185D01*
X121424600Y-73021259D01*
X121443415Y-73044185D01*
X121540106Y-73123537D01*
X121650420Y-73182502D01*
X121770118Y-73218812D01*
X121894235Y-73231036D01*
X121919428Y-73314086D01*
X121919429Y-73314087D01*
X121996965Y-73459146D01*
X122101310Y-73586291D01*
X122133174Y-73612441D01*
X123580359Y-75059626D01*
X123606509Y-75091491D01*
X123733654Y-75195836D01*
X123878713Y-75273372D01*
X123999025Y-75309868D01*
X124102059Y-75412902D01*
X124278865Y-75531040D01*
X124475322Y-75612415D01*
X124683879Y-75653900D01*
X124896521Y-75653900D01*
X125105078Y-75612415D01*
X125301535Y-75531040D01*
X125478341Y-75412902D01*
X125490084Y-75401159D01*
X130874643Y-75337310D01*
X132246793Y-76709461D01*
X132220600Y-76841140D01*
X132220600Y-77133660D01*
X132277668Y-77420558D01*
X132389610Y-77690811D01*
X132552125Y-77934032D01*
X132758968Y-78140875D01*
X132933360Y-78257400D01*
X132758968Y-78373925D01*
X132552125Y-78580768D01*
X132389610Y-78823989D01*
X132277668Y-79094242D01*
X132220600Y-79381140D01*
X132220600Y-79673660D01*
X132277668Y-79960558D01*
X132389610Y-80230811D01*
X132552125Y-80474032D01*
X132758968Y-80680875D01*
X132941134Y-80802595D01*
X132824245Y-80872222D01*
X132608012Y-81067131D01*
X132433959Y-81300480D01*
X132308775Y-81563301D01*
X132264124Y-81710510D01*
X132385445Y-81940400D01*
X133578600Y-81940400D01*
X133578600Y-81920400D01*
X133832600Y-81920400D01*
X133832600Y-81940400D01*
X135025755Y-81940400D01*
X135147076Y-81710510D01*
X135102425Y-81563301D01*
X134977241Y-81300480D01*
X134803188Y-81067131D01*
X134586955Y-80872222D01*
X134470066Y-80802595D01*
X134652232Y-80680875D01*
X134859075Y-80474032D01*
X135021590Y-80230811D01*
X135133532Y-79960558D01*
X135190600Y-79673660D01*
X135190600Y-79381140D01*
X135133532Y-79094242D01*
X135021590Y-78823989D01*
X134859075Y-78580768D01*
X134652232Y-78373925D01*
X134477840Y-78257400D01*
X134652232Y-78140875D01*
X134859075Y-77934032D01*
X135021590Y-77690811D01*
X135133532Y-77420558D01*
X135190600Y-77133660D01*
X135190600Y-76841140D01*
X135133532Y-76554242D01*
X135021590Y-76283989D01*
X134859075Y-76040768D01*
X134652232Y-75833925D01*
X134409011Y-75671410D01*
X134138758Y-75559468D01*
X133851860Y-75502400D01*
X133559340Y-75502400D01*
X133427661Y-75528593D01*
X131832332Y-73933265D01*
X131802614Y-73897917D01*
X131742302Y-73849605D01*
X131682545Y-73800564D01*
X131678137Y-73798208D01*
X131674241Y-73795087D01*
X131605683Y-73759480D01*
X131537486Y-73723028D01*
X131532704Y-73721578D01*
X131528273Y-73719276D01*
X131454093Y-73697731D01*
X131380088Y-73675282D01*
X131375113Y-73674792D01*
X131370320Y-73673400D01*
X131293382Y-73666742D01*
X131216400Y-73659160D01*
X131170437Y-73663687D01*
X125471407Y-73731265D01*
X125301535Y-73617760D01*
X125105078Y-73536385D01*
X124896521Y-73494900D01*
X124683879Y-73494900D01*
X124475322Y-73536385D01*
X124435392Y-73552924D01*
X123935277Y-73052809D01*
X123945785Y-73044185D01*
X123964600Y-73021259D01*
X123983415Y-73044185D01*
X124080106Y-73123537D01*
X124190420Y-73182502D01*
X124310118Y-73218812D01*
X124434600Y-73231072D01*
X126034600Y-73231072D01*
X126159082Y-73218812D01*
X126278780Y-73182502D01*
X126389094Y-73123537D01*
X126485785Y-73044185D01*
X126504600Y-73021259D01*
X126523415Y-73044185D01*
X126620106Y-73123537D01*
X126730420Y-73182502D01*
X126850118Y-73218812D01*
X126974600Y-73231072D01*
X128574600Y-73231072D01*
X128699082Y-73218812D01*
X128818780Y-73182502D01*
X128929094Y-73123537D01*
X129025785Y-73044185D01*
X129044600Y-73021259D01*
X129063415Y-73044185D01*
X129160106Y-73123537D01*
X129270420Y-73182502D01*
X129390118Y-73218812D01*
X129514600Y-73231072D01*
X131114600Y-73231072D01*
X131239082Y-73218812D01*
X131358780Y-73182502D01*
X131469094Y-73123537D01*
X131565785Y-73044185D01*
X131584600Y-73021259D01*
X131603415Y-73044185D01*
X131700106Y-73123537D01*
X131810420Y-73182502D01*
X131930118Y-73218812D01*
X132054600Y-73231072D01*
X133654600Y-73231072D01*
X133779082Y-73218812D01*
X133898780Y-73182502D01*
X134009094Y-73123537D01*
X134105785Y-73044185D01*
X134124600Y-73021259D01*
X134143415Y-73044185D01*
X134240106Y-73123537D01*
X134350420Y-73182502D01*
X134470118Y-73218812D01*
X134594600Y-73231072D01*
X135108850Y-73228000D01*
X135267600Y-73069250D01*
X135267600Y-71920000D01*
X135521600Y-71920000D01*
X135521600Y-73069250D01*
X135680350Y-73228000D01*
X136194600Y-73231072D01*
X136319082Y-73218812D01*
X136438780Y-73182502D01*
X136549094Y-73123537D01*
X136645785Y-73044185D01*
X136664600Y-73021259D01*
X136683415Y-73044185D01*
X136780106Y-73123537D01*
X136890420Y-73182502D01*
X137010118Y-73218812D01*
X137134600Y-73231072D01*
X137648850Y-73228000D01*
X137807600Y-73069250D01*
X137807600Y-71920000D01*
X135521600Y-71920000D01*
X135267600Y-71920000D01*
X135247600Y-71920000D01*
X135247600Y-71666000D01*
X135267600Y-71666000D01*
X135267600Y-71646000D01*
X135521600Y-71646000D01*
X135521600Y-71666000D01*
G36*
X145694400Y-83921600D02*
G01*
X145714400Y-83921600D01*
X145714400Y-84175600D01*
X145694400Y-84175600D01*
X145694400Y-85369414D01*
X145924291Y-85490081D01*
X146198652Y-85392757D01*
X146228601Y-85374917D01*
X146228601Y-90674928D01*
X144754600Y-90674928D01*
X144630118Y-90687188D01*
X144510420Y-90723498D01*
X144400106Y-90782463D01*
X144303415Y-90861815D01*
X144284600Y-90884741D01*
X144265785Y-90861815D01*
X144169094Y-90782463D01*
X144058780Y-90723498D01*
X143939082Y-90687188D01*
X143814600Y-90674928D01*
X142214600Y-90674928D01*
X142090118Y-90687188D01*
X141970420Y-90723498D01*
X141860106Y-90782463D01*
X141763415Y-90861815D01*
X141744600Y-90884741D01*
X141725785Y-90861815D01*
X141629094Y-90782463D01*
X141518780Y-90723498D01*
X141399082Y-90687188D01*
X141274600Y-90674928D01*
X139674600Y-90674928D01*
X139550118Y-90687188D01*
X139430420Y-90723498D01*
X139320106Y-90782463D01*
X139223415Y-90861815D01*
X139204600Y-90884741D01*
X139185785Y-90861815D01*
X139089094Y-90782463D01*
X138978780Y-90723498D01*
X138859082Y-90687188D01*
X138734600Y-90674928D01*
X137581939Y-90674928D01*
X144082400Y-84174469D01*
X144082400Y-84175602D01*
X144247244Y-84175602D01*
X144125924Y-84405490D01*
X144170575Y-84552699D01*
X144295759Y-84815520D01*
X144469812Y-85048869D01*
X144686045Y-85243778D01*
X144936148Y-85392757D01*
X145210509Y-85490081D01*
X145440400Y-85369414D01*
X145440400Y-84175600D01*
X145420400Y-84175600D01*
X145420400Y-83921600D01*
X145440400Y-83921600D01*
X145440400Y-83901600D01*
X145694400Y-83901600D01*
X145694400Y-83921600D01*
G37*
X145694400Y-83921600D02*
X145714400Y-83921600D01*
X145714400Y-84175600D01*
X145694400Y-84175600D01*
X145694400Y-85369414D01*
X145924291Y-85490081D01*
X146198652Y-85392757D01*
X146228601Y-85374917D01*
X146228601Y-90674928D01*
X144754600Y-90674928D01*
X144630118Y-90687188D01*
X144510420Y-90723498D01*
X144400106Y-90782463D01*
X144303415Y-90861815D01*
X144284600Y-90884741D01*
X144265785Y-90861815D01*
X144169094Y-90782463D01*
X144058780Y-90723498D01*
X143939082Y-90687188D01*
X143814600Y-90674928D01*
X142214600Y-90674928D01*
X142090118Y-90687188D01*
X141970420Y-90723498D01*
X141860106Y-90782463D01*
X141763415Y-90861815D01*
X141744600Y-90884741D01*
X141725785Y-90861815D01*
X141629094Y-90782463D01*
X141518780Y-90723498D01*
X141399082Y-90687188D01*
X141274600Y-90674928D01*
X139674600Y-90674928D01*
X139550118Y-90687188D01*
X139430420Y-90723498D01*
X139320106Y-90782463D01*
X139223415Y-90861815D01*
X139204600Y-90884741D01*
X139185785Y-90861815D01*
X139089094Y-90782463D01*
X138978780Y-90723498D01*
X138859082Y-90687188D01*
X138734600Y-90674928D01*
X137581939Y-90674928D01*
X144082400Y-84174469D01*
X144082400Y-84175602D01*
X144247244Y-84175602D01*
X144125924Y-84405490D01*
X144170575Y-84552699D01*
X144295759Y-84815520D01*
X144469812Y-85048869D01*
X144686045Y-85243778D01*
X144936148Y-85392757D01*
X145210509Y-85490081D01*
X145440400Y-85369414D01*
X145440400Y-84175600D01*
X145420400Y-84175600D01*
X145420400Y-83921600D01*
X145440400Y-83921600D01*
X145440400Y-83901600D01*
X145694400Y-83901600D01*
X145694400Y-83921600D01*
M02*
